<svg xmlns="http://www.w3.org/2000/svg" viewBox="0 0 123.6 123.63"><title>clock</title><g id="Layer_2" data-name="Layer 2"><g id="artwork"><path d="M64.08,0c21.75,1.6,38.71,11.42,50.33,29.87a58.48,58.48,0,0,1,8.28,42C117.55,102.5,90.22,125,59.08,123.57A62.07,62.07,0,0,1,.37,68.35C-1.46,50.72,3.57,35,15.17,21.64S41.57,1.18,59.36.07M4.55,61.83C4.68,94,30,119.09,61.89,119a56.74,56.74,0,0,0,57-55.48A56.82,56.82,0,0,0,62.25,4.68C30.17,4.48,4.82,29.52,4.55,61.83Z"/><path d="M61.85,114c-20.43-1-36-10-46.16-27.95-.1-.18-.2-.35-.28-.54a2.3,2.3,0,1,1,4.09-2.06,49.55,49.55,0,0,0,6.82,10,45.21,45.21,0,0,0,27.56,15.17C70,111,84.07,106.68,95.71,95.09A45,45,0,0,0,105,81.51a11.83,11.83,0,0,1,.72-1.5,2.25,2.25,0,0,1,4.14,1.52,4.51,4.51,0,0,1-.41,1.29c-7.86,16.49-20.71,26.62-38.64,30.24A60.17,60.17,0,0,1,61.85,114Z"/><path d="M81.06,39.51c1.32-1.39,2.56-2.71,3.82-4a2.31,2.31,0,0,1,2.31-.81,2.27,2.27,0,0,1,1,3.92c-2,2.08-4,4.1-6.08,6.13L67.46,59.41c-.18.18-.32.38-.46.54.51,3.29-.46,5.48-3,6.79a5.41,5.41,0,0,1-7.13-7.14c1.35-2.54,3.56-3.52,6.62-3l13.93-13.9c-.16-.54-.75-.8-1.22-1.14a23.48,23.48,0,0,0-6.45-3.28,9.13,9.13,0,0,1-1.14-.41A2.28,2.28,0,0,1,67.35,35a2.18,2.18,0,0,1,2.53-1.42,8.16,8.16,0,0,1,1.31.36A31,31,0,0,1,81.06,39.51Z"/><path d="M91.13,29a6.5,6.5,0,0,0,1.51-1.31A2.36,2.36,0,0,1,96,27.57a2.26,2.26,0,0,1-.1,3.36c-.9,1-1.83,1.88-2.76,2.81-1.36,1.38-2.51,1.38-3.9,0a36.44,36.44,0,0,0-10.59-7.47,39.26,39.26,0,0,0-28.91-1.91c-.43.13-.86.3-1.3.4a2.28,2.28,0,1,1-1.39-4.34,39.24,39.24,0,0,1,7.61-1.94c13.3-2,25.09,1.41,35.49,9.85C90.5,28.57,90.83,28.8,91.13,29Z"/><path d="M59.65,32.42a6.77,6.77,0,0,1,1,.06,2.2,2.2,0,0,1,1.75,2.33,2.12,2.12,0,0,1-2,2.12,27.53,27.53,0,0,0-7.94,1.79c-.92.4-1.82.87-2.74,1.29a2.3,2.3,0,0,1-3.15-.85,2.25,2.25,0,0,1,1-3.21A29.83,29.83,0,0,1,59.65,32.42Z"/><path d="M29.86,37.41a2.31,2.31,0,0,1-2.08-3.33,2.46,2.46,0,0,1,.33-.5,41.18,41.18,0,0,1,9.11-8.17A2.26,2.26,0,0,1,40.81,27a2.53,2.53,0,0,1-1.4,2.49,38.43,38.43,0,0,0-7.13,6.31c-.27.3-.53.61-.8.91A2.54,2.54,0,0,1,29.86,37.41Z"/><path d="M113.75,59.61c0,.81,0,1.62,0,2.42a2.24,2.24,0,0,1-2.16,2.13A2.21,2.21,0,0,1,109.26,62a70.35,70.35,0,0,0-1-9.78,2.15,2.15,0,0,1,1.84-2.66c1.31-.23,2.33.54,2.65,2.07A44.31,44.31,0,0,1,113.75,59.61Z"/><path d="M40.73,46.86a2.29,2.29,0,0,1-1.94-3.4,6.27,6.27,0,0,1,1.46-1.72,2.25,2.25,0,0,1,3.72,2C43.85,45.09,42,46.89,40.73,46.86Z"/><path d="M27,42.59a3,3,0,0,1-2.65,3.12,2.21,2.21,0,0,1-2.27-2.15,3.16,3.16,0,0,1,2.58-3.24A2.31,2.31,0,0,1,27,42.59Z"/></g></g></svg>