<svg xmlns="http://www.w3.org/2000/svg" viewBox="0 0 28.82 28.82"><title>linkedin</title><g id="Layer_2" data-name="Layer 2"><g id="artwork"><path d="M14.41,0A14.41,14.41,0,1,0,28.82,14.41,14.41,14.41,0,0,0,14.41,0ZM10.88,20.38H8V11h2.92ZM9.4,9.84a1.46,1.46,0,1,1,0-2.92,1.46,1.46,0,1,1,0,2.92ZM21.54,20.38H18.62v-5.2c0-1.21-.42-2-1.48-2a1.6,1.6,0,0,0-1.5,1.09,2.08,2.08,0,0,0-.1.73v5.42H12.63V14c0-1.17,0-2.15-.08-3h2.53l.13,1.31h.06a3.38,3.38,0,0,1,2.9-1.52c1.92,0,3.36,1.29,3.36,4.05Z"/></g></g></svg>