<svg xmlns="http://www.w3.org/2000/svg" viewBox="0 0 171.29 62.01"><title>logo</title><g id="Layer_2" data-name="Layer 2"><g id="artwork"><path d="M86.15,27.88l-6.3-9.2v9.2h-2.7v-13h3.36l5.77,8.58V14.91H89v13Z"/><path d="M100.81,25.3a4.32,4.32,0,0,1-4.38,2.85,4.72,4.72,0,0,1-5-4.81A4.67,4.67,0,0,1,96.2,18.6c3,0,4.75,1.77,4.75,4.67,0,.35,0,.71,0,.75H94a2.29,2.29,0,0,0,2.42,2,2.12,2.12,0,0,0,2.19-1.37Zm-2.42-2.95a1.89,1.89,0,0,0-2.15-1.77,2,2,0,0,0-2.15,1.77Z"/><path d="M108.44,27.88h-2.6l-3.93-9h2.85l2.38,6,2.29-6h2.74Z"/><path d="M122.38,25.3A4.32,4.32,0,0,1,118,28.15a4.72,4.72,0,0,1-5-4.81,4.67,4.67,0,0,1,4.73-4.74c3,0,4.75,1.77,4.75,4.67,0,.35,0,.71,0,.75h-6.88a2.29,2.29,0,0,0,2.42,2,2.12,2.12,0,0,0,2.19-1.37ZM120,22.35a1.89,1.89,0,0,0-2.15-1.77,2,2,0,0,0-2.15,1.77Z"/><path d="M130.72,21.29a4.17,4.17,0,0,0-.78-.07,2.25,2.25,0,0,0-2.48,2.54v4.12h-2.6v-9h2.52v1.34a2.91,2.91,0,0,1,2.74-1.41c.21,0,.41,0,.61,0Z"/><path d="M141.38,25.3A4.32,4.32,0,0,1,137,28.15a4.72,4.72,0,0,1-5-4.81,4.67,4.67,0,0,1,4.73-4.74c3,0,4.75,1.77,4.75,4.67,0,.35,0,.71,0,.75h-6.88a2.29,2.29,0,0,0,2.42,2,2.12,2.12,0,0,0,2.19-1.37ZM139,22.35a1.89,1.89,0,0,0-2.15-1.77,2,2,0,0,0-2.15,1.77Z"/><path d="M149,27.88h-2.6l-3.93-9h2.85l2.38,6,2.29-6h2.74Z"/><path d="M162.94,25.3a4.32,4.32,0,0,1-4.38,2.85,4.72,4.72,0,0,1-5-4.81,4.67,4.67,0,0,1,4.73-4.74c3,0,4.75,1.77,4.75,4.67,0,.35,0,.71,0,.75h-6.88a2.29,2.29,0,0,0,2.42,2,2.12,2.12,0,0,0,2.19-1.37Zm-2.42-2.95a1.89,1.89,0,0,0-2.15-1.77,2,2,0,0,0-2.15,1.77Z"/><path d="M171.29,21.29a4.17,4.17,0,0,0-.78-.07A2.25,2.25,0,0,0,168,23.76v4.12h-2.6v-9h2.52v1.34a2.91,2.91,0,0,1,2.74-1.41c.21,0,.41,0,.61,0Z"/><path d="M77.16,48.21v-13h2.7V45.8H86v2.42Z"/><path d="M89.49,34.74a1.5,1.5,0,1,1-1.6,1.52A1.55,1.55,0,0,1,89.49,34.74ZM88.2,48.21v-9h2.6v9Z"/><path d="M93.87,48.21v-9h2.48v1.1A3.38,3.38,0,0,1,99.17,39a3,3,0,0,1,2.85,1.5,3.41,3.41,0,0,1,3-1.5,3.22,3.22,0,0,1,3.48,3.42v5.84H106V42.87a1.55,1.55,0,0,0-1.7-1.7,1.7,1.7,0,0,0-1.78,1.77v5.27H100V42.87a1.56,1.56,0,0,0-1.7-1.7,1.7,1.7,0,0,0-1.8,1.77v5.27Z"/><path d="M112.78,34.74a1.5,1.5,0,1,1-1.6,1.52A1.55,1.55,0,0,1,112.78,34.74Zm-1.29,13.47v-9h2.6v9Z"/><path d="M120.36,39.21h1.94v2.16h-1.94v3.77c0,.79.39,1,1.13,1a4,4,0,0,0,.8-.07v2a4.09,4.09,0,0,1-1.47.22c-1.88,0-3-1-3-2.78V41.37H116V39.21h.49A1.34,1.34,0,0,0,118,37.78V36.52h2.35Z"/><path d="M133.32,45.63a4.32,4.32,0,0,1-4.38,2.85,4.72,4.72,0,0,1-5-4.81,4.67,4.67,0,0,1,4.73-4.74c3,0,4.75,1.77,4.75,4.67,0,.35,0,.71,0,.75h-6.88a2.29,2.29,0,0,0,2.42,2A2.12,2.12,0,0,0,131.15,45Zm-2.42-2.95a1.89,1.89,0,0,0-2.15-1.77,2,2,0,0,0-2.15,1.77Z"/><path d="M145,46.58c0,.6,0,1.26.08,1.63h-2.48a5.81,5.81,0,0,1-.1-1,3.08,3.08,0,0,1-2.7,1.26A4.72,4.72,0,0,1,139.7,39c1.66,0,2.44.64,2.72,1.12V35H145Zm-4.89-.33a2.35,2.35,0,0,0,2.37-2.58,2.3,2.3,0,0,0-2.37-2.51,2.55,2.55,0,0,0,0,5.09Z"/><path d="M26.85,62,0,46.51v-31L26.85,0,53.7,15.5v31ZM2,45.33,26.85,59.66,51.67,45.33V16.68L26.85,2.35,2,16.68Zm50.65.59h0Z"/><path d="M16.27,26.35.76,16.93a1,1,0,0,1,1.06-1.74l14.79,9,35.34-9a1,1,0,1,1,.5,2Z"/><path d="M26.85,61.85a1,1,0,0,1-1-.73L15.46,25.54a1,1,0,0,1,2-.57L27.83,60.55a1,1,0,0,1-1,1.3Z"/></g></g></svg>