<svg id="Layer_1" xmlns="http://www.w3.org/2000/svg" viewBox="0 0 120.3 133.5"><style>.st0,.st1{fill:none;stroke:#000;stroke-width:3.13;stroke-linecap:round;stroke-linejoin:round}.st1{stroke-width:2.79}</style><title>building</title><g id="Layer_2"><g id="artwork"><path class="st0" d="M31.5 113.4H12.9v-3.5l2-1.4V58l-2-1.4v-5.9h18.6v5.8l-2.1 1.3v50.4l2.1 1.7zm25.3 0H38.2v-3.5l2-1.4V58l-2-1.4v-5.9h18.6v5.8l-2.1 1.3v50.4l2.1 1.7zm25.3 0H63.5v-3.5l2.1-1.4V58l-2.1-1.4v-5.9h18.6v5.8L80 57.8v50.4l2.1 1.7zm25.3 0H88.8v-3.5l2.1-1.4V58l-2.1-1.4v-5.9h18.6v5.8l-2.1 1.3v50.4l2.1 1.7z"/><path class="st1" d="M3.2 119.4h113.9v9.5H3.2z"/><path class="st0" d="M5.5 36.7h109.3v7.6H5.5zM60.1 5.6L2.9 32.2c-1.2.5-1.7 1.9-1.1 3.1.4.8 1.2 1.4 2.1 1.3h112.4c1.3 0 2.3-1 2.3-2.3 0-.9-.5-1.7-1.3-2.1L60.1 5.6z"/><circle class="st0" cx="60.1" cy="22.1" r="6.9"/></g></g></svg>