<svg xmlns="http://www.w3.org/2000/svg" viewBox="0 0 120.26 126.34"><defs><style>.cls-1,.cls-2{fill:none;stroke:#000;stroke-linecap:round;stroke-linejoin:round}.cls-1{stroke-width:3.13px}.cls-2{stroke-width:2.79px}</style></defs><title>building</title><g id="Layer_2" data-name="Layer 2"><g id="artwork"><path class="cls-1" d="M31.49 109.39H12.86v-3.47l2.08-1.43V53.95l-2.08-1.32v-5.96h18.63v5.79l-2.09 1.3v50.4l2.09 1.7v3.53zm25.3 0H38.16v-3.47l2.09-1.43V53.95l-2.09-1.32v-5.96h18.63v5.79l-2.08 1.3v50.4l2.08 1.7v3.53zm25.31 0H63.47v-3.47l2.09-1.43V53.95l-2.09-1.32v-5.96H82.1v5.79l-2.08 1.3v50.4l2.08 1.7v3.53zm25.31 0H88.78v-3.47l2.08-1.43V53.95l-2.08-1.32v-5.96h18.63v5.79l-2.09 1.3v50.4l2.09 1.7v3.53z"/><path class="cls-2" transform="rotate(90 60.13 120.19)" d="M55.38 63.24h9.51v113.91h-9.51z"/><path class="cls-1" transform="rotate(90 60.135 36.555)" d="M56.32-18.09h7.62V91.2h-7.62z"/><path class="cls-1" d="M60.13 1.56L2.92 28.18a2.34 2.34 0 0 0 1 4.46h112.44a2.34 2.34 0 0 0 1-4.46z"/><circle class="cls-1" cx="60.13" cy="18.15" r="6.92"/></g></g></svg>