<svg xmlns="http://www.w3.org/2000/svg" viewBox="0 0 171.29 62.01"><title>logo</title><g data-name="Layer 2"><path d="M86.15 27.88l-6.3-9.2v9.2h-2.7v-13h3.36l5.77 8.58v-8.55H89v13zm14.66-2.58a4.32 4.32 0 0 1-4.38 2.85 4.72 4.72 0 0 1-5-4.81 4.67 4.67 0 0 1 4.77-4.74c3 0 4.75 1.77 4.75 4.67v.75H94a2.29 2.29 0 0 0 2.42 2 2.12 2.12 0 0 0 2.19-1.37zm-2.42-2.95a1.89 1.89 0 0 0-2.15-1.77 2 2 0 0 0-2.15 1.77zm10.05 5.53h-2.6l-3.93-9h2.85l2.38 6 2.29-6h2.74zm13.94-2.58a4.32 4.32 0 0 1-4.38 2.85 4.72 4.72 0 0 1-5-4.81 4.67 4.67 0 0 1 4.73-4.74c3 0 4.75 1.77 4.75 4.67v.75h-6.88a2.29 2.29 0 0 0 2.42 2 2.12 2.12 0 0 0 2.19-1.37zM120 22.35a1.89 1.89 0 0 0-2.15-1.77 2 2 0 0 0-2.15 1.77zm10.72-1.06a4.17 4.17 0 0 0-.78-.07 2.25 2.25 0 0 0-2.48 2.54v4.12h-2.6v-9h2.52v1.34a2.91 2.91 0 0 1 2.74-1.41h.61zm10.66 4.01a4.32 4.32 0 0 1-4.38 2.85 4.72 4.72 0 0 1-5-4.81 4.67 4.67 0 0 1 4.73-4.74c3 0 4.75 1.77 4.75 4.67v.75h-6.88a2.29 2.29 0 0 0 2.42 2 2.12 2.12 0 0 0 2.19-1.37zM139 22.35a1.89 1.89 0 0 0-2.15-1.77 2 2 0 0 0-2.15 1.77zm10 5.53h-2.6l-3.93-9h2.85l2.38 6 2.29-6h2.74zm13.94-2.58a4.32 4.32 0 0 1-4.38 2.85 4.72 4.72 0 0 1-5-4.81 4.67 4.67 0 0 1 4.73-4.74c3 0 4.75 1.77 4.75 4.67v.75h-6.88a2.29 2.29 0 0 0 2.42 2 2.12 2.12 0 0 0 2.19-1.37zm-2.42-2.95a1.89 1.89 0 0 0-2.15-1.77 2 2 0 0 0-2.15 1.77zm10.77-1.06a4.17 4.17 0 0 0-.78-.07 2.25 2.25 0 0 0-2.51 2.54v4.12h-2.6v-9h2.52v1.34a2.91 2.91 0 0 1 2.74-1.41h.61zM77.16 48.21v-13h2.7V45.8H86v2.42zm12.33-13.47a1.5 1.5 0 1 1-1.6 1.52 1.55 1.55 0 0 1 1.6-1.52zM88.2 48.21v-9h2.6v9zm5.67 0v-9h2.48v1.1A3.38 3.38 0 0 1 99.17 39a3 3 0 0 1 2.85 1.5 3.41 3.41 0 0 1 3-1.5 3.22 3.22 0 0 1 3.48 3.42v5.84H106v-5.39a1.55 1.55 0 0 0-1.7-1.7 1.7 1.7 0 0 0-1.78 1.77v5.27H100v-5.34a1.56 1.56 0 0 0-1.7-1.7 1.7 1.7 0 0 0-1.8 1.77v5.27zm18.91-13.47a1.5 1.5 0 1 1-1.6 1.52 1.55 1.55 0 0 1 1.6-1.52zm-1.29 13.47v-9h2.6v9zm8.87-9h1.94v2.16h-1.94v3.77c0 .79.39 1 1.13 1a4 4 0 0 0 .8-.07v2a4.09 4.09 0 0 1-1.47.22c-1.88 0-3-1-3-2.78v-4.14H116v-2.16h.49a1.34 1.34 0 0 0 1.51-1.43v-1.26h2.35zm12.96 6.42a4.32 4.32 0 0 1-4.38 2.85 4.72 4.72 0 0 1-5-4.81 4.67 4.67 0 0 1 4.73-4.74c3 0 4.75 1.77 4.75 4.67v.75h-6.88a2.29 2.29 0 0 0 2.42 2 2.12 2.12 0 0 0 2.19-1.35zm-2.42-2.95a1.89 1.89 0 0 0-2.15-1.77 2 2 0 0 0-2.15 1.77zm14.1 3.9c0 .6 0 1.26.08 1.63h-2.48a5.81 5.81 0 0 1-.1-1 3.08 3.08 0 0 1-2.7 1.26 4.72 4.72 0 0 1-.1-9.47c1.66 0 2.44.64 2.72 1.12V35H145zm-4.89-.33a2.35 2.35 0 0 0 2.37-2.58 2.3 2.3 0 0 0-2.37-2.51 2.55 2.55 0 0 0 0 5.09zM26.85 62L0 46.51v-31L26.85 0 53.7 15.5v31zM2 45.33l24.85 14.33 24.82-14.33V16.68L26.85 2.35 2 16.68zm50.65.59z"/><path d="M16.27 26.35L.76 16.93a1 1 0 0 1 1.06-1.74l14.79 9 35.34-9a1 1 0 1 1 .5 2z"/><path d="M26.85 61.85a1 1 0 0 1-1-.73L15.46 25.54a1 1 0 0 1 2-.57l10.37 35.58a1 1 0 0 1-1 1.3z"/></g></svg>