<svg xmlns="http://www.w3.org/2000/svg" viewBox="0 0 79.46 144.54"><defs><style>.cls-1{stroke:#1d1d1b;stroke-width:.97px}.cls-1,.cls-3{stroke-miterlimit:10}.cls-2,.cls-3{fill:none;stroke:#000}.cls-2{stroke-linejoin:round;stroke-width:2.91px}.cls-3{stroke-width:2.64px}</style></defs><title>rocket</title><g id="Layer_2" data-name="Layer 2"><g id="artwork"><path class="cls-1" d="M42.89 1c-.2-.22-.36-.53-.82-.54-.33.32-.72.66-1.07 1-2.49 2.6-4.89 5.29-7.16 8.09a96.07 96.07 0 0 0-9.34 13.62A33 33 0 0 0 20 39c0 1.83-.15 3.65-.18 5.48-.12 8.15.23 16.27.66 24.4 0 .43 2.23 32.9 2.35 32.85a2.51 2.51 0 0 0 .89 1.43 22.13 22.13 0 0 0 3.78 2.39A28.57 28.57 0 0 0 42.19 108a23.57 23.57 0 0 0 10.86-3.36c1-.6 2.06-1.09 2.46-2.37.32-.44 4.83-38.75 5.12-41.68.7-7.21 1.27-14.42 1.41-21.65a31.73 31.73 0 0 0-3-14.26C55 15.86 49.29 8.19 42.89 1zm15.25 26.19a26.83 26.83 0 0 1 2.1 11.11c0 7.32-.66 14.61-1.38 21.9-1.35 13.7-3.18 27.35-5.17 41 0 .27-.1.55-.14.79-6.51 5.78-22.12 5.82-28.86-.37-.21-2.46-.45-5-.66-7.59C22.85 80 21.85 66 21.58 52a113.65 113.65 0 0 1 .62-17.5 24.42 24.42 0 0 1 3-8.46 37.65 37.65 0 0 0 32.46.44c.34.09.34.43.48.71zM57 24.47c-5.72 4.82-23.46 4.69-30.91-.29C30.37 16.35 36 9.56 42.14 2.94 48 9.62 53.14 16.57 57 24.47zM38.5 143.86a1 1 0 0 1-1.27 0c-.33-1 .38-24.48.76-25.51a1.28 1.28 0 0 1 1.29 0c.34.97-.36 24.41-.78 25.51zm-9.15-9.59a1 1 0 0 1-1.16.07 1.48 1.48 0 0 1-.32-1.27l.62-20.48a1.82 1.82 0 0 1 .27-1.17 1 1 0 0 1 1.27 0c.36 1-.26 21.8-.68 22.85zm18.34-22.65a1 1 0 0 1 1.23.06c.31.93-.26 21.57-.63 22.79a1 1 0 0 1-1.28.09 1.53 1.53 0 0 1-.28-1.25l.62-20.48a1.7 1.7 0 0 1 .34-1.21z"/><path class="cls-1" d="M49.74 61.09a13.2 13.2 0 1 1 .72-18.77 13.38 13.38 0 0 1-.72 18.77zm-1.2-1.35a11.39 11.39 0 1 0-16.16-.15 11.45 11.45 0 0 0 16.16.15z"/><path class="cls-2" d="M21.29 74.64L1.46 84.21l7.94 26.88 8.24-3.21-.66-10.21 5.62-1.42m35.71-22.38l19.7 11.19-9.72 26.28-8.01-3.75 1.34-10.14-5.51-1.79"/><path class="cls-3" d="M22 81.05c5.8 4.13 22.34 9 35.13 1.51M22.77 88c5.63 4.72 20.9 9.43 33.7 1.56"/></g></g></svg>