<svg xmlns="http://www.w3.org/2000/svg" viewBox="0 0 186.42 117.36"><defs><style>.cls-1{fill:#1d1d1b}</style></defs><title>shake</title><g id="Layer_2" data-name="Layer 2"><g id="artwork"><path class="cls-1" d="M141.23 81.8l-2.69-3-2.73-3c-10.25-11.43-21.28-23.7-32.46-35.93l-.07-.08c-2.11-2.3-4.28-4.69-6.53-6.9-.77-.75-1-.71-1.22-.67a3 3 0 0 0-.81.36c-8 4.48-16.27 8.71-24.05 12.65l-1.09.58a22.78 22.78 0 0 1-3 1.43 12.88 12.88 0 0 1-3.92.85h-.4a7.39 7.39 0 0 1-7.65-7.32 9.87 9.87 0 0 1 3.73-8.64 219.37 219.37 0 0 1 34-22.91c4.46-2.41 8.45-3.4 12.55-3.12a23 23 0 0 1 9.27 2.9 74.63 74.63 0 0 1 8.41 5.17 32.8 32.8 0 0 0 3.43 2.14 7 7 0 0 0 7.39-.16l1.62-.89.78-.42 1.9-1 1 1.93c6.69 13.07 13.94 27 22.16 42.51l.53 1-.54 1c-4.6 8.54-11.41 14.79-18.07 20.28zM95.69 28a5.74 5.74 0 0 1 4 1.9c2.32 2.29 4.54 4.71 6.68 7.06l.07.08C117.66 49.25 128.69 61.52 139 73l2.7 3c5.56-4.68 11.05-10 14.94-16.75-7.64-14.42-14.43-27.42-20.71-39.66l-.44.24A11.19 11.19 0 0 1 124 20a37 37 0 0 1-3.9-2.41 70.42 70.42 0 0 0-7.94-4.88 18.69 18.69 0 0 0-7.63-2.41 18.44 18.44 0 0 0-10.25 2.62A215.22 215.22 0 0 0 61 35.42a5.71 5.71 0 0 0-2.17 5.13 3.23 3.23 0 0 0 3.66 3.31 8.64 8.64 0 0 0 2.64-.59 19.29 19.29 0 0 0 2.45-1.18l1.19-.63c7.75-3.93 16-8.13 23.9-12.57a6.75 6.75 0 0 1 2.11-.82 5.11 5.11 0 0 1 .91-.07zm72.23 35.88l-27.36-52.53 18.15-9.21 27.71 52.35zM156.86 7.42l-10.24 5.76 23.52 45.17 10.5-5.91zm-116.74.21L18.93 62.94 0 55.45 20.83 0zM5.18 53.34l11.11 3.85L34.51 9.63 23.12 5.69z"/><path class="cls-1" d="M86.93 9.82L83.24 12c-2.76-1.8-5.68-1.54-8.62-.61a26.05 26.05 0 0 0-4.54 2c-2.32 1.26-4.57 2.63-6.95 3.78A25 25 0 0 1 57 19.33a13.44 13.44 0 0 1-10.86-2.57 7.43 7.43 0 0 1-2-1.95C38.81 29.26 33.51 43.46 28 57.66c4 4.85 8.34 9.42 12.77 14a13.09 13.09 0 0 0-2.93 2.92c-1.43-1.49-2.79-2.89-4.14-4.32-2.8-3-5.49-6-8.19-9.1a5.15 5.15 0 0 1-1-5.83c5.42-13.81 10.6-27.7 15.69-41.63.58-1.58 1.4-2.82 3.16-3.22a3.8 3.8 0 0 1 4 1.51 8 8 0 0 0 5.15 3.17 10.83 10.83 0 0 0 6.4-.75 47.57 47.57 0 0 0 7.16-3.59A35.14 35.14 0 0 1 74.4 7.1c3.59-.94 7.1-.93 10.43 1 .52.29 1 .66 1.48 1a1.67 1.67 0 0 1 .62.72zm53.95 74.65l3.65-2.79a2.75 2.75 0 0 1 .49 1.94 10 10 0 0 1-8.42 9.81 9.6 9.6 0 0 1-5.28-.59 2.5 2.5 0 0 0-.93-.32 26.18 26.18 0 0 1-.5 2.67c-1.12 3.83-3.39 6.61-7.37 7.67a8.82 8.82 0 0 1-6-.56l-1.11-.51c-.32.33-.24.7-.29 1a11 11 0 0 1-5 8.07 8.6 8.6 0 0 1-8.84.33 1.66 1.66 0 0 1-.28-.19 14.2 14.2 0 0 0 2-3.39h.25c3.67 1.59 6.76-1 7.68-4.37a7.21 7.21 0 0 0-1.59-7q-5.66-6.48-11.31-13a2.62 2.62 0 0 1-.4-3.45c.85-1.23 1.83-1.28 2.83-.17q7.64 8.53 15.3 17a6.15 6.15 0 0 0 4 2.2 5.43 5.43 0 0 0 5.56-3.07 7.8 7.8 0 0 0-1.16-9.19c-1.69-1.89-3.4-3.75-5.11-5.63l-7.73-8.52a2.57 2.57 0 0 1 .91-4.1c.8-.35 1.33-.22 2 .58q3.25 3.67 6.49 7.36 4.68 5.31 9.36 10.61c1.74 2 3.87 3 6.5 2.2a5.67 5.67 0 0 0 4.3-4.59zm-69.19 25.34a6.92 6.92 0 0 1-1.44-.15 7.32 7.32 0 0 1-5.15-4.32 8 8 0 0 1-.76-3.28 8.86 8.86 0 0 1 2.9-6.92L71.79 91l7.1-6.45a7.2 7.2 0 0 1 6.29-1.81 7.28 7.28 0 0 1 5.14 4.17 8.86 8.86 0 0 1-2 10.33c-4.25 3.89-8.07 7.36-11.66 10.6a7.4 7.4 0 0 1-4.97 1.97zm12.1-23.37a3.46 3.46 0 0 0-2.32 1l-7.09 6.44L69.82 98a5 5 0 0 0-1.64 4.1v.07a4.38 4.38 0 0 0 .43 1.62 3.52 3.52 0 0 0 2.39 2.1 3.4 3.4 0 0 0 3-.92c3.59-3.24 7.4-6.7 11.64-10.58a5 5 0 0 0 1.13-5.86 3.48 3.48 0 0 0-2.42-2 3.13 3.13 0 0 0-.56-.09zM57.56 99.57a6.8 6.8 0 0 1-1.09-.09 7.31 7.31 0 0 1-5.16-3.72 9 9 0 0 1-1.12-4.55v-.09a8.73 8.73 0 0 1 2.91-6.23c3-2.71 6-5.45 8.92-8.14A7 7 0 0 1 69.31 75a7.46 7.46 0 0 1 5 5.94 8.67 8.67 0 0 1-2.81 8.47l-4.05 3.7-5 4.52a7.41 7.41 0 0 1-4.89 1.94zM54 91.24a5.18 5.18 0 0 0 .63 2.63 3.45 3.45 0 0 0 2.43 1.82 3.41 3.41 0 0 0 2.85-.95l4.95-4.5 4.06-3.7a4.82 4.82 0 0 0 1.62-4.88 3.59 3.59 0 0 0-2.47-3 3.18 3.18 0 0 0-3.47 1c-2.93 2.7-5.94 5.44-8.95 8.16A4.9 4.9 0 0 0 54 91.24z"/><path class="cls-1" d="M89.11 117.36a7 7 0 0 1-1.17-.1 7.31 7.31 0 0 1-5.33-4.08 8.92 8.92 0 0 1 1.58-10.11l1.23-1.27c1.17-1.21 2.38-2.46 3.55-3.7a7 7 0 0 1 7.89-2c2 .74 4.45 2.53 4.89 6.79a5.17 5.17 0 0 1 0 .71v.15a8.28 8.28 0 0 1-2.26 6l-1 1c-1.42 1.51-2.89 3.07-4.41 4.56a7.13 7.13 0 0 1-4.97 2.05zm5.2-17.95a3.5 3.5 0 0 0-2.56 1.33c-1.19 1.26-2.4 2.52-3.58 3.74L87 105.75a5.13 5.13 0 0 0-.9 5.74 3.51 3.51 0 0 0 2.53 2 3.22 3.22 0 0 0 2.84-1c1.46-1.43 2.9-3 4.3-4.45l1-1a4.5 4.5 0 0 0 1.22-3.29v-.48c-.26-2.5-1.5-3.25-2.41-3.59a3.38 3.38 0 0 0-1.27-.26zm-49.47-11.3a6.92 6.92 0 0 1-1.2-.11 7.2 7.2 0 0 1-4.79-3.24 8.74 8.74 0 0 1 1.55-11.31c.38-.33.77-.63 1.14-.91s.62-.48.9-.71a7.19 7.19 0 0 1 5.9-1.69A7.55 7.55 0 0 1 53.6 74a8.86 8.86 0 0 1 1.07 4.52v.11a8.61 8.61 0 0 1-3.28 6.31c-.68.54-1.41 1.12-2.16 1.68a7.28 7.28 0 0 1-4.39 1.49zm2.34-14.23a3.44 3.44 0 0 0-2.23.86c-.36.31-.72.58-1.07.85s-.66.5-.95.76a4.94 4.94 0 0 0-.86 6.31 3.22 3.22 0 0 0 4.84.87c.71-.54 1.42-1.09 2.08-1.62a4.75 4.75 0 0 0 1.83-3.47 5.07 5.07 0 0 0-.56-2.53 3.74 3.74 0 0 0-2.57-2 3.06 3.06 0 0 0-.51-.03z"/><path class="cls-1" transform="rotate(-24.77 155.02 16.307)" d="M152.37 13.61h5.26v5.37h-5.26z"/><path class="cls-1" transform="rotate(-24.77 159.745 26.2)" d="M157.11 23.52h5.26v5.37h-5.26z"/><path class="cls-1" transform="rotate(-69.77 22.17 25.018)" d="M19.49 22.39h5.37v5.26h-5.37z"/><path class="cls-1" transform="rotate(-69.77 25.83 14.663)" d="M23.14 12.03h5.37v5.26h-5.37z"/></g></g></svg>