<svg xmlns="http://www.w3.org/2000/svg" viewBox="0 0 27.66 28.82"><title>twitter</title><path d="M13.83 0C6.19 0 0 6.45 0 14.41s6.19 14.41 13.83 14.41 13.83-6.45 13.83-14.41S21.47 0 13.83 0zm6.73 10.81v.47c0 4.78-3.49 10.3-9.88 10.3A9.55 9.55 0 0 1 5.37 20a7 7 0 0 0 .83 0 6.79 6.79 0 0 0 4.31-1.55 3.5 3.5 0 0 1-3.24-2.51 3.43 3.43 0 0 0 .65.06 3.37 3.37 0 0 0 .91-.13A3.59 3.59 0 0 1 6 12.33a3.36 3.36 0 0 0 1.57.45 3.66 3.66 0 0 1-1.54-3 3.72 3.72 0 0 1 .47-1.82 9.73 9.73 0 0 0 7.16 3.78 3.79 3.79 0 0 1-.09-.82 3.55 3.55 0 0 1 3.47-3.62 3.41 3.41 0 0 1 2.53 1.14 6.76 6.76 0 0 0 2.21-.88 3.61 3.61 0 0 1-1.53 2 6.72 6.72 0 0 0 2-.57 7.21 7.21 0 0 1-1.69 1.82z" data-name="Layer 2"/></svg>