<svg xmlns="http://www.w3.org/2000/svg" viewBox="0 0 263.1 642.85"><defs><style>.cls-1,.cls-4{fill:#eaeaea}.cls-1,.cls-2,.cls-3,.cls-4{stroke:#000}.cls-1,.cls-3,.cls-4{stroke-miterlimit:10}.cls-1,.cls-2,.cls-3{stroke-width:3.58px}.cls-2,.cls-3{fill:none}.cls-2{stroke-linecap:round;stroke-linejoin:round}.cls-4{stroke-width:5.01px}.cls-5{font-size:27.75px;font-family:CircularPro-Bold,CircularPro Bold;font-weight:700}</style></defs><title>zip-up</title><g id="Layer_2" data-name="Layer 2"><g id="artwork"><path class="cls-1" d="M98.4 63.33c-1-1.48-2.16-3-3.38-4.56a1.49 1.49 0 0 1 .24-2.08l5.49-4.38a1.49 1.49 0 0 1 2.1.24c1.37 1.75 2.64 3.48 3.81 5.15a1.48 1.48 0 0 1-.39 2.07l-5.82 3.94a1.49 1.49 0 0 1-2.05-.38zm9.6 14.14c-.92-1.55-1.94-3.15-3-4.79a1.49 1.49 0 0 1 .39-2.06l5.8-4a1.49 1.49 0 0 1 2.08.4c1.24 1.85 2.39 3.66 3.43 5.41a1.48 1.48 0 0 1-.54 2L110 78a1.49 1.49 0 0 1-2-.53zm-21.18-28.3c-1.31-1.4-2.65-2.8-4-4.16a1.48 1.48 0 0 1 0-2.09l4.92-5a1.49 1.49 0 0 1 2.11 0c1.49 1.48 2.95 3 4.37 4.53a1.49 1.49 0 0 1-.09 2.11l-5.19 4.74a1.48 1.48 0 0 1-2.12-.13zM73.5 36.46C72 35.21 70.53 34 69 32.83a1.48 1.48 0 0 1-.27-2.07L73 25.17a1.49 1.49 0 0 1 2.09-.28c1.64 1.28 3.28 2.61 4.9 4a1.49 1.49 0 0 1 .19 2.11l-4.59 5.3a1.49 1.49 0 0 1-2.09.16zM58.76 25.57c-1.62-1-3.25-2-4.87-2.92a1.48 1.48 0 0 1-.58-2l3.37-6.16a1.49 1.49 0 0 1 2-.59c1.83 1 3.66 2.13 5.48 3.28a1.49 1.49 0 0 1 .45 2.07l-3.83 5.89a1.49 1.49 0 0 1-2.02.43zM42.7 17.2a86.9 86.9 0 0 0-5.21-1.93 1.48 1.48 0 0 1-1-1.85l2.09-6.71a1.49 1.49 0 0 1 1.88-1c2 .67 4.06 1.42 6.09 2.25a1.49 1.49 0 0 1 .8 2l-2.76 6.46a1.49 1.49 0 0 1-1.89.78zm-17.13-4.82c-1.8-.27-3.6-.47-5.38-.59a1.48 1.48 0 0 1-1.4-1.54l.3-7a1.49 1.49 0 0 1 1.57-1.43c2.18.14 4.39.38 6.59.72a1.49 1.49 0 0 1 1.23 1.73l-1.21 6.92a1.49 1.49 0 0 1-1.7 1.19z"/><path class="cls-2" d="M76.64 55.94a106 106 0 0 1 11.3 14 114 114 0 0 1 12.4 24.47C115 134.48 111.89 177 112.06 218.84q.14 35.55.38 71.09.28 45.43.6 90.87.34 48.62.7 97.24.34 45.1.69 90.2c.18 23.25.85 68.49.85 68.49l-25 1.33c-.18-6.53 1.88-17.52 2.1-37q.47-42.38.77-84.77c.24-33.1-.59-66.2-.52-99.3.07-34 1-68.06.85-102.09-.18-31.05-.49-62.11-1.11-93.15q-.4-19.78-1-39.56c-.56-17-.64-34.2-2.23-51.15-.73-7.78-3-15.53-5.27-23C73.15 72.55 42.41 45.42 5.54 41.53l6.76-5.15L2 32.13l9.79-3.75-10-7c1.59 1.11 7.65.54 9.7.85a135.11 135.11 0 0 1 14.39 3.13A102.29 102.29 0 0 1 49.39 35a114.35 114.35 0 0 1 27.25 20.94z"/><path class="cls-3" d="M13.49 22.33c-5.63-1.85-3.75-10.51 1-10.51C59 13.69 100.52 53.19 114 93.63c10.87 32.55 11 61.55 10.21 243.55l.34 301.55"/><path class="cls-1" d="M123.35 150.63c0-1.8-.06-3.7-.17-5.67a1.49 1.49 0 0 1 1.38-1.57l7-.46a1.49 1.49 0 0 1 1.59 1.4c.12 2.22.19 4.37.19 6.41a1.48 1.48 0 0 1-1.51 1.48l-7-.09a1.49 1.49 0 0 1-1.48-1.5zm1.36 19.5c0-1.8-.06-3.7-.17-5.67a1.49 1.49 0 0 1 1.38-1.57l7-.46a1.49 1.49 0 0 1 1.59 1.4c.12 2.22.19 4.37.19 6.41a1.48 1.48 0 0 1-1.51 1.48l-7-.09a1.49 1.49 0 0 1-1.47-1.5zm1.36 19.5c0-1.8-.06-3.7-.17-5.67a1.49 1.49 0 0 1 1.38-1.57l7-.46a1.49 1.49 0 0 1 1.59 1.4c.12 2.22.19 4.37.19 6.41a1.48 1.48 0 0 1-1.51 1.48l-7-.09a1.49 1.49 0 0 1-1.47-1.5zm.36 19.5c0-1.8-.06-3.7-.17-5.67a1.49 1.49 0 0 1 1.38-1.57l7-.46a1.49 1.49 0 0 1 1.59 1.4c.12 2.22.19 4.37.19 6.41a1.48 1.48 0 0 1-1.51 1.48l-7-.09a1.49 1.49 0 0 1-1.47-1.5zm0 19.33c0-1.8-.06-3.7-.17-5.67a1.49 1.49 0 0 1 1.38-1.57l7-.46a1.49 1.49 0 0 1 1.59 1.4c.12 2.22.19 4.37.19 6.41a1.48 1.48 0 0 1-1.51 1.48l-7-.09a1.49 1.49 0 0 1-1.47-1.5zm0 19.33c0-1.8-.06-3.7-.17-5.67a1.49 1.49 0 0 1 1.38-1.57l7-.46a1.49 1.49 0 0 1 1.59 1.4c.12 2.22.19 4.37.19 6.41a1.48 1.48 0 0 1-1.51 1.48l-7-.09a1.49 1.49 0 0 1-1.47-1.49zm0 19.33c0-1.8-.06-3.7-.17-5.67a1.49 1.49 0 0 1 1.38-1.57l7-.46a1.49 1.49 0 0 1 1.59 1.4c.12 2.22.19 4.37.19 6.41a1.48 1.48 0 0 1-1.51 1.48l-7-.09a1.49 1.49 0 0 1-1.47-1.49zm0 19.33c0-1.8-.06-3.7-.17-5.67a1.49 1.49 0 0 1 1.38-1.57l7-.46a1.49 1.49 0 0 1 1.59 1.4c.12 2.22.19 4.37.19 6.41a1.48 1.48 0 0 1-1.51 1.48l-7-.09a1.49 1.49 0 0 1-1.47-1.49zm0 19.33c0-1.8-.06-3.7-.17-5.67a1.49 1.49 0 0 1 1.38-1.57l7-.46a1.49 1.49 0 0 1 1.59 1.4c.12 2.22.19 4.37.19 6.41a1.48 1.48 0 0 1-1.51 1.48l-7-.09a1.49 1.49 0 0 1-1.47-1.48zm0 19.33c0-1.8-.06-3.7-.17-5.67a1.49 1.49 0 0 1 1.38-1.57l7-.46a1.49 1.49 0 0 1 1.59 1.4c.12 2.22.19 4.37.19 6.41a1.48 1.48 0 0 1-1.51 1.48l-7-.09a1.49 1.49 0 0 1-1.47-1.48zm-3.81-193c-.18-1.91-.4-3.83-.66-5.74a1.48 1.48 0 0 1 1.26-1.67l7-1a1.49 1.49 0 0 1 1.69 1.27c.28 2.08.52 4.17.72 6.25a1.49 1.49 0 0 1-1.36 1.62l-7 .61a1.48 1.48 0 0 1-1.63-1.34zm-2.84-18.19c-.41-1.89-.86-3.76-1.34-5.6a1.48 1.48 0 0 1 1-1.81l6.78-1.84a1.49 1.49 0 0 1 1.83 1.05c.53 2 1 4.07 1.47 6.14a1.49 1.49 0 0 1-1.15 1.77l-6.88 1.43a1.49 1.49 0 0 1-1.69-1.14zm-5.08-17.6c-.66-1.8-1.36-3.57-2.09-5.28a1.48 1.48 0 0 1 .76-1.94l6.43-2.84a1.49 1.49 0 0 1 2 .77c.82 1.93 1.61 3.91 2.35 5.93a1.49 1.49 0 0 1-.91 1.91l-6.62 2.34a1.49 1.49 0 0 1-1.91-.89z"/><path class="cls-2" d="M186.46 58.94a106 106 0 0 0-11.3 14 114 114 0 0 0-12.4 24.47C148.09 137.48 151.21 180 151 221.85q-.14 35.55-.38 71.09-.28 45.43-.6 90.87-.34 48.62-.7 97.24-.34 45.1-.69 90.2c-.18 23.25-.85 68.49-.85 68.49l25 1.33c.18-6.53-1.88-17.52-2.1-37q-.47-42.38-.77-84.77-.36-49.65-.48-99.3-.11-51 .15-102.09c.18-31.05.49-62.11 1.11-93.15q.4-19.78 1-39.56c.56-17 .64-34.2 2.23-51.15.73-7.78 3-15.53 5.27-23 10.7-35.45 41.44-62.57 78.31-66.46l-6.76-5.15 10.25-4.25-9.79-3.75 10-7c-1.59 1.11-7.65.54-9.7.85a135.11 135.11 0 0 0-14.39 3.13 102.29 102.29 0 0 0-23.4 9.58 114.35 114.35 0 0 0-27.25 20.94z"/><path class="cls-3" d="M249.61 25.33c5.63-1.85 3.75-10.51-1-10.51-44.49 1.87-86 41.37-99.54 81.81-10.87 32.55-11 61.55-10.21 243.55l-.3 298.55"/><path class="cls-1" d="M157.06 70.36l-6-3.67a1.48 1.48 0 0 1-.49-2.05c1.09-1.72 2.29-3.5 3.58-5.32a1.49 1.49 0 0 1 2.09-.34l5.68 4.13a1.49 1.49 0 0 1 .33 2.07c-1.14 1.61-2.2 3.18-3.17 4.7a1.49 1.49 0 0 1-2.02.48zm10.89-15l-5.39-4.5a1.49 1.49 0 0 1-.19-2.1c1.35-1.59 2.75-3.17 4.17-4.72a1.49 1.49 0 0 1 2.11-.08l5.14 4.79a1.48 1.48 0 0 1 .08 2.09c-1.3 1.42-2.58 2.87-3.82 4.33a1.48 1.48 0 0 1-2.05.24zm12.73-13.55l-4.82-5.11a1.49 1.49 0 0 1 .07-2.11c1.55-1.44 3.13-2.84 4.72-4.2a1.49 1.49 0 0 1 2.1.18l4.5 5.43a1.48 1.48 0 0 1-.18 2.08 137.3 137.3 0 0 0-4.3 3.83 1.49 1.49 0 0 1-2.09-.05zM194.95 30l-4.09-5.71a1.49 1.49 0 0 1 .35-2.09c1.76-1.23 3.55-2.41 5.32-3.52a1.49 1.49 0 0 1 2.06.5l3.65 6a1.48 1.48 0 0 1-.49 2c-1.58 1-3.16 2-4.74 3.13a1.49 1.49 0 0 1-2.06-.26zm15.77-9.43l-3-6.33a1.49 1.49 0 0 1 .71-2c2-.92 4-1.76 6-2.52a1.49 1.49 0 0 1 1.92.89l2.39 6.61a1.48 1.48 0 0 1-.87 1.89c-1.7.65-3.41 1.37-5.12 2.16a1.49 1.49 0 0 1-2.03-.65zm17.11-6l-1.52-6.86A1.49 1.49 0 0 1 227.46 6c2.19-.44 4.38-.78 6.56-1a1.49 1.49 0 0 1 1.63 1.35l.61 7a1.48 1.48 0 0 1-1.33 1.6c-1.77.2-3.56.48-5.35.83a1.49 1.49 0 0 1-1.75-1.18zM138.28 143.2l-7 .09a1.48 1.48 0 0 1-1.51-1.48c0-2 .07-4.18.19-6.41a1.49 1.49 0 0 1 1.59-1.4l7 .46a1.49 1.49 0 0 1 1.38 1.57c-.11 2-.16 3.87-.17 5.67a1.49 1.49 0 0 1-1.48 1.5zm-1.36 19.5l-7 .09a1.48 1.48 0 0 1-1.51-1.48c0-2 .07-4.18.19-6.41a1.49 1.49 0 0 1 1.59-1.4l7 .46a1.49 1.49 0 0 1 1.38 1.57c-.11 2-.16 3.87-.17 5.67a1.49 1.49 0 0 1-1.48 1.5zm-1.36 19.5l-7 .09a1.48 1.48 0 0 1-1.51-1.48c0-2 .07-4.18.19-6.41a1.49 1.49 0 0 1 1.59-1.4l7 .46a1.49 1.49 0 0 1 1.38 1.57c-.11 2-.16 3.87-.17 5.67a1.49 1.49 0 0 1-1.49 1.5zm-.36 19.5l-7 .09a1.48 1.48 0 0 1-1.51-1.48c0-2 .07-4.18.19-6.41a1.49 1.49 0 0 1 1.59-1.4l7 .46a1.49 1.49 0 0 1 1.38 1.57c-.11 2-.16 3.87-.17 5.67a1.49 1.49 0 0 1-1.49 1.5zm0 19.33l-7 .09a1.48 1.48 0 0 1-1.51-1.48c0-2 .07-4.18.19-6.41a1.49 1.49 0 0 1 1.59-1.4l7 .46a1.49 1.49 0 0 1 1.38 1.57c-.11 2-.16 3.87-.17 5.67a1.49 1.49 0 0 1-1.49 1.47zm0 19.33l-7 .09a1.48 1.48 0 0 1-1.51-1.48c0-2 .07-4.18.19-6.41a1.49 1.49 0 0 1 1.59-1.4l7 .46a1.49 1.49 0 0 1 1.38 1.57c-.11 2-.16 3.87-.17 5.67a1.49 1.49 0 0 1-1.49 1.5zm0 19.33l-7 .09a1.48 1.48 0 0 1-1.51-1.48c0-2 .07-4.18.19-6.41a1.49 1.49 0 0 1 1.59-1.4l7 .46a1.49 1.49 0 0 1 1.38 1.57c-.11 2-.16 3.87-.17 5.67a1.49 1.49 0 0 1-1.49 1.51zm0 19.33l-7 .09a1.48 1.48 0 0 1-1.51-1.48c0-2 .07-4.18.19-6.41a1.49 1.49 0 0 1 1.59-1.4l7 .46a1.49 1.49 0 0 1 1.38 1.57c-.11 2-.16 3.87-.17 5.67a1.49 1.49 0 0 1-1.49 1.48zm0 19.33l-7 .09a1.48 1.48 0 0 1-1.51-1.48c0-2 .07-4.18.19-6.41a1.49 1.49 0 0 1 1.59-1.4l7 .46a1.49 1.49 0 0 1 1.38 1.57c-.11 2-.16 3.87-.17 5.67a1.49 1.49 0 0 1-1.49 1.51zm0 19.33l-7 .09a1.48 1.48 0 0 1-1.51-1.48c0-2 .07-4.18.19-6.41a1.49 1.49 0 0 1 1.59-1.4l7 .46a1.49 1.49 0 0 1 1.38 1.57c-.11 2-.16 3.87-.17 5.67a1.49 1.49 0 0 1-1.49 1.52zm3.67-193.16l-7-.61a1.49 1.49 0 0 1-1.36-1.62c.2-2.08.44-4.17.72-6.25a1.49 1.49 0 0 1 1.69-1.27l7 1a1.48 1.48 0 0 1 1.26 1.67c-.25 1.91-.48 3.83-.66 5.74a1.48 1.48 0 0 1-1.66 1.35zm4.69-18.39l-6.88-1.43a1.49 1.49 0 0 1-1.15-1.77c.45-2.07.94-4.13 1.47-6.14a1.49 1.49 0 0 1 1.83-1.05l6.78 1.84a1.48 1.48 0 0 1 1 1.81c-.48 1.84-.93 3.71-1.34 5.6a1.49 1.49 0 0 1-1.72 1.15zm4.95-17.85l-6.62-2.34A1.49 1.49 0 0 1 141 84c.74-2 1.53-4 2.35-5.93a1.49 1.49 0 0 1 2-.77l6.43 2.84a1.48 1.48 0 0 1 .76 1.94c-.73 1.71-1.43 3.48-2.09 5.28a1.49 1.49 0 0 1-1.95.93zm-13.4 443.11l-7 .09a1.48 1.48 0 0 1-1.51-1.48c0-2 .07-4.18.19-6.41a1.49 1.49 0 0 1 1.59-1.4l7 .46a1.49 1.49 0 0 1 1.38 1.57c-.11 2-.16 3.87-.17 5.67a1.49 1.49 0 0 1-1.48 1.5zm0 19.33l-7 .09a1.48 1.48 0 0 1-1.51-1.48c0-2 .07-4.18.19-6.41a1.49 1.49 0 0 1 1.59-1.4l7 .46a1.49 1.49 0 0 1 1.38 1.57c-.11 2-.16 3.87-.17 5.67a1.49 1.49 0 0 1-1.48 1.5zm0 19.33l-7 .09a1.48 1.48 0 0 1-1.51-1.48c0-2 .07-4.18.19-6.41a1.49 1.49 0 0 1 1.59-1.4l7 .46a1.49 1.49 0 0 1 1.38 1.57c-.11 2-.16 3.87-.17 5.67a1.49 1.49 0 0 1-1.48 1.5zm0 19.34l-7 .09a1.48 1.48 0 0 1-1.51-1.48c0-2 .07-4.18.19-6.41a1.49 1.49 0 0 1 1.59-1.4l7 .46a1.49 1.49 0 0 1 1.38 1.57c-.11 2-.16 3.87-.17 5.67a1.49 1.49 0 0 1-1.48 1.5zm0 19.33l-7 .09a1.48 1.48 0 0 1-1.51-1.48c0-2 .07-4.18.19-6.41a1.49 1.49 0 0 1 1.59-1.4l7 .46a1.49 1.49 0 0 1 1.38 1.57c-.11 2-.16 3.87-.17 5.67a1.49 1.49 0 0 1-1.48 1.5zm0 19.33l-7 .09a1.48 1.48 0 0 1-1.51-1.48c0-2 .07-4.18.19-6.41a1.49 1.49 0 0 1 1.59-1.4l7 .46a1.49 1.49 0 0 1 1.38 1.57c-.11 2-.16 3.87-.17 5.67a1.49 1.49 0 0 1-1.48 1.5z"/><path class="cls-1" d="M135.11 542.05l-7 .09a1.48 1.48 0 0 1-1.51-1.48c0-2 .07-4.18.19-6.41a1.49 1.49 0 0 1 1.59-1.4l7 .46a1.49 1.49 0 0 1 1.38 1.57c-.11 2-.16 3.87-.17 5.67a1.49 1.49 0 0 1-1.48 1.5zm0 19.34l-7 .09a1.48 1.48 0 0 1-1.51-1.48c0-2 .07-4.18.19-6.41a1.49 1.49 0 0 1 1.59-1.4l7 .46a1.49 1.49 0 0 1 1.38 1.57c-.11 2-.16 3.87-.17 5.67a1.49 1.49 0 0 1-1.48 1.5zm0 19.33l-7 .09a1.48 1.48 0 0 1-1.51-1.48c0-2 .07-4.18.19-6.41a1.49 1.49 0 0 1 1.59-1.4l7 .46a1.49 1.49 0 0 1 1.38 1.57c-.11 2-.16 3.87-.17 5.67a1.49 1.49 0 0 1-1.48 1.5zm0 19.33l-7 .09a1.48 1.48 0 0 1-1.51-1.48c0-2 .07-4.18.19-6.41a1.49 1.49 0 0 1 1.59-1.4l7 .46a1.49 1.49 0 0 1 1.38 1.57c-.11 2-.16 3.87-.17 5.67a1.49 1.49 0 0 1-1.48 1.5zm0 19.34l-7 .09a1.48 1.48 0 0 1-1.51-1.48c0-2 .07-4.18.19-6.41a1.49 1.49 0 0 1 1.59-1.4l7 .46a1.49 1.49 0 0 1 1.38 1.57c-.11 2-.16 3.87-.17 5.67a1.49 1.49 0 0 1-1.48 1.5zm0 19.33l-7 .09a1.48 1.48 0 0 1-1.51-1.48c0-2 .07-4.18.19-6.41a1.49 1.49 0 0 1 1.59-1.4l7 .46a1.49 1.49 0 0 1 1.38 1.57c-.11 2-.16 3.87-.17 5.67a1.49 1.49 0 0 1-1.48 1.5zm0-224.33l-7 .09a1.48 1.48 0 0 1-1.51-1.48c0-2 .07-4.18.19-6.41a1.49 1.49 0 0 1 1.59-1.4l7 .46a1.49 1.49 0 0 1 1.38 1.57c-.11 2-.16 3.87-.17 5.67a1.49 1.49 0 0 1-1.48 1.5zm0 19.33l-7 .09a1.48 1.48 0 0 1-1.51-1.48c0-2 .07-4.18.19-6.41a1.49 1.49 0 0 1 1.59-1.4l7 .46a1.49 1.49 0 0 1 1.38 1.57c-.11 2-.16 3.87-.17 5.67a1.49 1.49 0 0 1-1.48 1.5zm0 19.33l-7 .09a1.48 1.48 0 0 1-1.51-1.48c0-2 .07-4.18.19-6.41a1.49 1.49 0 0 1 1.59-1.4l7 .46a1.49 1.49 0 0 1 1.38 1.57c-.11 2-.16 3.87-.17 5.67a1.49 1.49 0 0 1-1.48 1.5zm0 19.34l-7 .09a1.48 1.48 0 0 1-1.51-1.48c0-2 .07-4.18.19-6.41a1.49 1.49 0 0 1 1.59-1.4l7 .46a1.49 1.49 0 0 1 1.38 1.57c-.11 2-.16 3.87-.17 5.67a1.49 1.49 0 0 1-1.48 1.5zm0 19.33l-7 .09a1.48 1.48 0 0 1-1.51-1.48c0-2 .07-4.18.19-6.41a1.49 1.49 0 0 1 1.59-1.4l7 .46a1.49 1.49 0 0 1 1.38 1.57c-.11 2-.16 3.87-.17 5.67a1.49 1.49 0 0 1-1.48 1.5zm0 19.33l-7 .09a1.48 1.48 0 0 1-1.51-1.48c0-2 .07-4.18.19-6.41a1.49 1.49 0 0 1 1.59-1.4l7 .46a1.49 1.49 0 0 1 1.38 1.57c-.11 2-.16 3.87-.17 5.67a1.49 1.49 0 0 1-1.48 1.5z"/><path class="cls-1" d="M135.11 425.05l-7 .09a1.48 1.48 0 0 1-1.51-1.48c0-2 .07-4.18.19-6.41a1.49 1.49 0 0 1 1.59-1.4l7 .46a1.49 1.49 0 0 1 1.38 1.57c-.11 2-.16 3.87-.17 5.67a1.49 1.49 0 0 1-1.48 1.5zm0 19.34l-7 .09a1.48 1.48 0 0 1-1.51-1.48c0-2 .07-4.18.19-6.41a1.49 1.49 0 0 1 1.59-1.4l7 .46a1.49 1.49 0 0 1 1.38 1.57c-.11 2-.16 3.87-.17 5.67a1.49 1.49 0 0 1-1.48 1.5zm0 19.33l-7 .09a1.48 1.48 0 0 1-1.51-1.48c0-2 .07-4.18.19-6.41a1.49 1.49 0 0 1 1.59-1.4l7 .46a1.49 1.49 0 0 1 1.38 1.57c-.11 2-.16 3.87-.17 5.67a1.49 1.49 0 0 1-1.48 1.5zm0-127.81l-7 .09a1.48 1.48 0 0 1-1.51-1.48c0-2 .07-4.18.19-6.41a1.49 1.49 0 0 1 1.59-1.4l7 .46a1.49 1.49 0 0 1 1.38 1.57c-.11 2-.16 3.87-.17 5.67a1.49 1.49 0 0 1-1.48 1.5zm0 19.33l-7 .09a1.48 1.48 0 0 1-1.51-1.48c0-2 .07-4.18.19-6.41a1.49 1.49 0 0 1 1.59-1.4l7 .46a1.49 1.49 0 0 1 1.38 1.57c-.11 2-.16 3.87-.17 5.67a1.49 1.49 0 0 1-1.48 1.5zm0 19.33l-7 .09a1.48 1.48 0 0 1-1.51-1.48c0-2 .07-4.18.19-6.41a1.49 1.49 0 0 1 1.59-1.4l7 .46a1.49 1.49 0 0 1 1.38 1.57c-.11 2-.16 3.87-.17 5.67a1.49 1.49 0 0 1-1.48 1.5z"/><path class="cls-1" d="M135.11 346.57l-7 .09a1.48 1.48 0 0 1-1.51-1.48c0-2 .07-4.18.19-6.41a1.49 1.49 0 0 1 1.59-1.4l7 .46a1.49 1.49 0 0 1 1.38 1.57c-.11 2-.16 3.87-.17 5.67a1.49 1.49 0 0 1-1.48 1.5zm0 19.34l-7 .09a1.48 1.48 0 0 1-1.51-1.48c0-2 .07-4.18.19-6.41a1.49 1.49 0 0 1 1.59-1.4l7 .46a1.49 1.49 0 0 1 1.38 1.57c-.11 2-.16 3.87-.17 5.67a1.49 1.49 0 0 1-1.48 1.5zm0 19.33l-7 .09a1.48 1.48 0 0 1-1.51-1.48c0-2 .07-4.18.19-6.41a1.49 1.49 0 0 1 1.59-1.4l7 .46a1.49 1.49 0 0 1 1.38 1.57c-.11 2-.16 3.87-.17 5.67a1.49 1.49 0 0 1-1.48 1.5z"/><path class="cls-1" d="M135.11 394.53l-7 .09a1.48 1.48 0 0 1-1.51-1.48c0-2 .07-4.18.19-6.41a1.49 1.49 0 0 1 1.59-1.4l7 .46a1.49 1.49 0 0 1 1.38 1.57c-.11 2-.16 3.87-.17 5.67a1.49 1.49 0 0 1-1.48 1.5zm0 10.66l-7 .09a1.48 1.48 0 0 1-1.51-1.48c0-2 .07-4.18.19-6.41a1.49 1.49 0 0 1 1.59-1.4l7 .46a1.49 1.49 0 0 1 1.38 1.57c-.11 2-.16 3.87-.17 5.67a1.49 1.49 0 0 1-1.48 1.5zm0 77.86l-7 .09a1.48 1.48 0 0 1-1.51-1.48c0-2 .07-4.18.19-6.41a1.49 1.49 0 0 1 1.59-1.4l7 .46a1.49 1.49 0 0 1 1.38 1.57c-.11 2-.16 3.87-.17 5.67a1.49 1.49 0 0 1-1.48 1.5zm0 19.34l-7 .09a1.48 1.48 0 0 1-1.51-1.48c0-2 .07-4.18.19-6.41a1.49 1.49 0 0 1 1.59-1.4l7 .46a1.49 1.49 0 0 1 1.38 1.57c-.11 2-.16 3.87-.17 5.67a1.49 1.49 0 0 1-1.48 1.5zm0 19.33l-7 .09a1.48 1.48 0 0 1-1.51-1.48c0-2 .07-4.18.19-6.41a1.49 1.49 0 0 1 1.59-1.4l7 .46a1.49 1.49 0 0 1 1.38 1.57c-.11 2-.16 3.87-.17 5.67a1.49 1.49 0 0 1-1.48 1.5z"/><path class="cls-4" d="M170 240.48a18.24 18.24 0 0 0 5.21-12.87v-40.44l-18.53-21.59V112.9c-3.23-9-18.92-9.68-25-9.59-6.06-.09-21.75.57-25 9.59v52.68l-18.53 21.59v40.44a18.34 18.34 0 0 0 4.3 11.89"/><path class="cls-4" d="M122 177.34h-4.17a14.35 14.35 0 0 0-11.7 6.24l-2.57 3.65a16.29 16.29 0 0 0-2.72 6.64l-12.25 71.5a30.57 30.57 0 0 0-.44 5.16 29.14 29.14 0 0 0 12.16 24l3.6 2.5a25.39 25.39 0 0 0 14.5 4.6h25a25.39 25.39 0 0 0 14.5-4.6l3.6-2.5a29.14 29.14 0 0 0 12.16-24 30.57 30.57 0 0 0-.44-5.16L161 193.86a16.29 16.29 0 0 0-2.72-6.64l-2.57-3.65a14.35 14.35 0 0 0-11.7-6.24h-.56"/><path class="cls-4" d="M122 194.08h-9l-5.11 41.09a6.47 6.47 0 0 0 6.12 7.49h33.69a6.46 6.46 0 0 0 6.13-7.4l-4.61-41.18h-7.87"/><rect class="cls-4" x="122" y="131.9" width="19.34" height="79.02" rx="9.67" ry="9.67"/><text class="cls-5" transform="matrix(1.01 0 0 1 107.45 281.14)">NEL</text></g></g></svg>