<svg xmlns="http://www.w3.org/2000/svg" viewBox="0 0 260.52 485.17"><defs><style>.cls-1,.cls-5{fill:#eaeaea}.cls-1,.cls-2,.cls-3,.cls-4,.cls-5{stroke:#000}.cls-1,.cls-3,.cls-5{stroke-miterlimit:10}.cls-1,.cls-2,.cls-3,.cls-4{stroke-width:3.55px}.cls-2,.cls-3,.cls-4{fill:none}.cls-2{stroke-linecap:square}.cls-2,.cls-4{stroke-linejoin:round}.cls-5{stroke-width:4.96px}.cls-6{font-size:27.48px;font-family:CircularPro-Bold,Circular Pro;font-weight:700}</style></defs><title>zip-down</title><g id="Layer_2" data-name="Layer 2"><g id="artwork"><path class="cls-1" d="M97.43 62.71c-1-1.46-2.14-3-3.34-4.51a1.48 1.48 0 0 1 .24-2.06l5.44-4.34a1.48 1.48 0 0 1 2.08.24c1.36 1.74 2.62 3.44 3.78 5.1a1.47 1.47 0 0 1-.39 2.05l-5.76 3.9a1.47 1.47 0 0 1-2.05-.38zm9.5 14c-.91-1.53-1.92-3.12-3-4.74a1.48 1.48 0 0 1 .38-2L110 66a1.48 1.48 0 0 1 2.06.39c1.23 1.83 2.36 3.62 3.4 5.36a1.47 1.47 0 0 1-.54 2l-6 3.47a1.47 1.47 0 0 1-1.99-.51zm-21-28c-1.29-1.39-2.62-2.77-4-4.12a1.47 1.47 0 0 1 0-2.07l4.87-5a1.47 1.47 0 0 1 2.09 0c1.47 1.47 2.92 3 4.33 4.48a1.47 1.47 0 0 1-.09 2.09L88 48.78a1.47 1.47 0 0 1-2-.09zM72.78 36.1c-1.46-1.24-2.94-2.44-4.42-3.59a1.47 1.47 0 0 1-.27-2.05l4.22-5.53a1.47 1.47 0 0 1 2.07-.28c1.63 1.27 3.25 2.59 4.85 3.94a1.48 1.48 0 0 1 .16 2.09l-4.54 5.27a1.47 1.47 0 0 1-2.07.15zm-14.6-10.78c-1.6-1-3.22-2-4.82-2.89a1.47 1.47 0 0 1-.57-2l3.34-6.1a1.47 1.47 0 0 1 2-.58c1.81 1 3.62 2.11 5.42 3.25a1.48 1.48 0 0 1 .44 2l-3.79 5.83a1.47 1.47 0 0 1-2.02.49zM42.28 17c-1.72-.7-3.45-1.34-5.16-1.91a1.47 1.47 0 0 1-.95-1.83l2.07-6.64a1.47 1.47 0 0 1 1.86-1c2 .66 4 1.41 6 2.23a1.48 1.48 0 0 1 .79 1.95l-2.73 6.4a1.47 1.47 0 0 1-1.88.8zm-17-4.78c-1.78-.27-3.57-.47-5.33-.58a1.47 1.47 0 0 1-1.38-1.53l.3-7a1.47 1.47 0 0 1 1.55-1.41c2.16.14 4.35.38 6.53.71A1.47 1.47 0 0 1 28.2 4.2L27 11.06a1.47 1.47 0 0 1-1.68 1.19zm108.51 398.1l-7 .09a1.47 1.47 0 0 1-1.49-1.46c0-2 .07-4.14.19-6.34a1.48 1.48 0 0 1 1.57-1.39l6.94.46a1.48 1.48 0 0 1 1.37 1.56c-.11 2-.16 3.83-.17 5.61a1.47 1.47 0 0 1-1.41 1.47zm0 19.14l-7 .09a1.47 1.47 0 0 1-1.49-1.46c0-2 .07-4.14.19-6.34a1.48 1.48 0 0 1 1.57-1.39l6.94.46a1.48 1.48 0 0 1 1.37 1.56c-.11 2-.16 3.83-.17 5.61a1.47 1.47 0 0 1-1.41 1.47zm0 19.14l-7 .09a1.47 1.47 0 0 1-1.49-1.46c0-2 .07-4.14.19-6.34a1.48 1.48 0 0 1 1.57-1.39l6.94.5a1.48 1.48 0 0 1 1.37 1.56c-.11 2-.16 3.83-.17 5.61a1.47 1.47 0 0 1-1.41 1.43zm0 19.15l-7 .09a1.47 1.47 0 0 1-1.49-1.46c0-2 .07-4.14.19-6.34a1.48 1.48 0 0 1 1.57-1.39l6.94.46a1.48 1.48 0 0 1 1.37 1.56c-.11 2-.16 3.83-.17 5.61a1.47 1.47 0 0 1-1.41 1.47z"/><path class="cls-1" d="M133.79 476.33l-7 .09a1.47 1.47 0 0 1-1.49-1.46c0-2 .07-4.14.19-6.34a1.48 1.48 0 0 1 1.57-1.39l6.94.46a1.48 1.48 0 0 1 1.37 1.56c-.11 2-.16 3.83-.17 5.61a1.47 1.47 0 0 1-1.41 1.47zm0-55.45l-7 .09a1.47 1.47 0 0 1-1.49-1.46c0-2 .07-4.14.19-6.34a1.48 1.48 0 0 1 1.57-1.39l6.94.46a1.48 1.48 0 0 1 1.37 1.56c-.11 2-.16 3.83-.17 5.61a1.47 1.47 0 0 1-1.41 1.47zm0 19.12l-7 .09a1.47 1.47 0 0 1-1.49-1.46c0-2 .07-4.14.19-6.34a1.48 1.48 0 0 1 1.57-1.39l6.94.46a1.48 1.48 0 0 1 1.37 1.56c-.11 2-.16 3.83-.17 5.61a1.47 1.47 0 0 1-1.41 1.47zm0 19.17l-7 .09a1.47 1.47 0 0 1-1.49-1.46c0-2 .07-4.14.19-6.34a1.48 1.48 0 0 1 1.57-1.39l6.94.46a1.48 1.48 0 0 1 1.37 1.56c-.11 2-.16 3.83-.17 5.61a1.47 1.47 0 0 1-1.41 1.47zm0-126.56l-7 .09a1.47 1.47 0 0 1-1.49-1.46c0-2 .07-4.14.19-6.34a1.48 1.48 0 0 1 1.57-1.39l6.94.49a1.48 1.48 0 0 1 1.37 1.56c-.11 2-.16 3.83-.17 5.61a1.47 1.47 0 0 1-1.41 1.44zm0 19.14l-7 .09a1.47 1.47 0 0 1-1.49-1.46c0-2 .07-4.14.19-6.34a1.48 1.48 0 0 1 1.57-1.39l6.94.46a1.48 1.48 0 0 1 1.37 1.56c-.11 2-.16 3.83-.17 5.61a1.47 1.47 0 0 1-1.41 1.47zm0 19.14l-7 .09a1.47 1.47 0 0 1-1.49-1.46c0-2 .07-4.14.19-6.34a1.48 1.48 0 0 1 1.57-1.39l6.94.46a1.48 1.48 0 0 1 1.37 1.56c-.11 2-.16 3.83-.17 5.61a1.47 1.47 0 0 1-1.41 1.47z"/><path class="cls-1" d="M133.79 343.17l-7 .09a1.47 1.47 0 0 1-1.49-1.46c0-2 .07-4.14.19-6.34a1.48 1.48 0 0 1 1.57-1.39l6.94.46a1.48 1.48 0 0 1 1.37 1.56c-.11 2-.16 3.83-.17 5.61a1.47 1.47 0 0 1-1.41 1.47zm0 19.14l-7 .09a1.47 1.47 0 0 1-1.49-1.46c0-2 .07-4.14.19-6.34a1.48 1.48 0 0 1 1.57-1.39l6.94.46a1.48 1.48 0 0 1 1.37 1.56c-.11 2-.16 3.83-.17 5.61a1.47 1.47 0 0 1-1.41 1.47zm0 19.15l-7 .09a1.47 1.47 0 0 1-1.49-1.46c0-2 .07-4.14.19-6.34a1.48 1.48 0 0 1 1.57-1.39l6.94.46a1.48 1.48 0 0 1 1.37 1.56c-.11 2-.16 3.83-.17 5.61a1.47 1.47 0 0 1-1.41 1.47z"/><path class="cls-1" d="M133.79 390.65l-7 .09a1.47 1.47 0 0 1-1.49-1.46c0-2 .07-4.14.19-6.34a1.48 1.48 0 0 1 1.57-1.39l6.94.45a1.48 1.48 0 0 1 1.37 1.56c-.11 2-.16 3.83-.17 5.61a1.47 1.47 0 0 1-1.41 1.48zm0 10.56l-7 .09a1.47 1.47 0 0 1-1.49-1.46c0-2 .07-4.14.19-6.34a1.48 1.48 0 0 1 1.57-1.39l6.94.46a1.48 1.48 0 0 1 1.37 1.56c-.11 2-.16 3.83-.17 5.61a1.47 1.47 0 0 1-1.41 1.47z"/><path class="cls-2" d="M112.69 483.38c0-2.45 0-7-.07-10q-.36-48.14-.7-96.28-.31-45-.6-90-.22-35.2-.38-70.4c-.17-41.39 2.93-83.54-11.6-123.19a112.85 112.85 0 0 0-12.26-24.24 105 105 0 0 0-11.19-13.88 113.22 113.22 0 0 0-27-20.73 101.28 101.28 0 0 0-23.28-9.55A133.91 133.91 0 0 0 11.38 22c-2-.3-8 .26-9.61-.84l9.94 6.93L2 31.82 12.17 36l-6.69 5.1C42 45 72.43 71.84 83 106.94c2.24 7.42 4.5 15.09 5.22 22.79 1.57 16.79 1.65 33.79 2.2 50.65q.64 19.58 1 39.17c.62 30.74.92 61.49 1.1 92.24.2 33.7-.77 67.39-.84 101.09-.07 32.77.52 37.13.28 69.9"/><path class="cls-3" d="M13.35 22.11c-5.57-1.84-3.71-10.41 1-10.41 44.06 1.85 85.18 41 98.56 81 10.77 32.23 10.94 60.95 10.11 241.16l-.27 150.76"/><path class="cls-1" d="M122.14 149.15c0-1.78-.06-3.66-.17-5.61a1.48 1.48 0 0 1 1.37-1.56l6.94-.46a1.48 1.48 0 0 1 1.57 1.39c.12 2.2.18 4.32.19 6.34a1.47 1.47 0 0 1-1.49 1.46l-7-.09a1.47 1.47 0 0 1-1.41-1.47zm1.35 19.31c0-1.78-.06-3.66-.17-5.61a1.48 1.48 0 0 1 1.37-1.56l6.94-.46a1.48 1.48 0 0 1 1.57 1.39c.12 2.2.18 4.32.19 6.34a1.47 1.47 0 0 1-1.49 1.44l-7-.09a1.47 1.47 0 0 1-1.41-1.45zm1.35 19.31c0-1.78-.06-3.66-.17-5.61a1.48 1.48 0 0 1 1.33-1.56l6.94-.46a1.48 1.48 0 0 1 1.57 1.39c.12 2.2.18 4.32.19 6.34a1.47 1.47 0 0 1-1.49 1.46l-7-.09a1.47 1.47 0 0 1-1.37-1.47zm.36 19.31c0-1.78-.06-3.66-.17-5.61a1.48 1.48 0 0 1 1.37-1.56l6.94-.46a1.48 1.48 0 0 1 1.57 1.39c.12 2.2.18 4.32.19 6.34a1.47 1.47 0 0 1-1.49 1.46l-7-.09a1.47 1.47 0 0 1-1.41-1.47zm0 19.14c0-1.78-.06-3.66-.17-5.61a1.48 1.48 0 0 1 1.37-1.61l6.94-.46a1.48 1.48 0 0 1 1.57 1.39c.12 2.2.18 4.32.19 6.34a1.47 1.47 0 0 1-1.49 1.46l-7-.09a1.47 1.47 0 0 1-1.41-1.42zm0 19.14c0-1.78-.06-3.66-.17-5.61a1.48 1.48 0 0 1 1.37-1.56l6.94-.46a1.48 1.48 0 0 1 1.57 1.39c.12 2.2.18 4.32.19 6.34a1.47 1.47 0 0 1-1.49 1.46l-7-.09a1.47 1.47 0 0 1-1.41-1.47zm0 19.14c0-1.78-.06-3.66-.17-5.61a1.48 1.48 0 0 1 1.37-1.56l6.94-.46a1.48 1.48 0 0 1 1.57 1.39c.12 2.2.18 4.32.19 6.34a1.47 1.47 0 0 1-1.49 1.46l-7-.09a1.47 1.47 0 0 1-1.41-1.46zm0 19.14c0-1.78-.06-3.66-.17-5.61a1.48 1.48 0 0 1 1.37-1.56l6.94-.46a1.48 1.48 0 0 1 1.57 1.39c.12 2.2.18 4.32.19 6.34a1.47 1.47 0 0 1-1.49 1.46l-7-.09a1.47 1.47 0 0 1-1.41-1.46zm0 19.14c0-1.78-.06-3.66-.17-5.61a1.48 1.48 0 0 1 1.37-1.56l6.94-.46a1.48 1.48 0 0 1 1.57 1.39c.12 2.2.18 4.32.19 6.34a1.47 1.47 0 0 1-1.49 1.46l-7-.09a1.47 1.47 0 0 1-1.41-1.46zm0 19.14c0-1.78-.06-3.66-.17-5.61a1.48 1.48 0 0 1 1.37-1.56l6.94-.46a1.48 1.48 0 0 1 1.57 1.39c.12 2.2.18 4.32.19 6.34a1.47 1.47 0 0 1-1.49 1.46l-7-.09a1.47 1.47 0 0 1-1.41-1.45zm-3.77-191.12c-.18-1.89-.4-3.79-.65-5.68a1.47 1.47 0 0 1 1.25-1.65l6.89-1a1.47 1.47 0 0 1 1.67 1.26c.28 2.06.51 4.13.71 6.19a1.47 1.47 0 0 1-1.34 1.6l-6.93.6a1.47 1.47 0 0 1-1.6-1.3zm-2.81-18c-.41-1.87-.85-3.72-1.33-5.54a1.47 1.47 0 0 1 1-1.79l6.71-1.83a1.47 1.47 0 0 1 1.81 1c.52 2 1 4 1.45 6.08a1.48 1.48 0 0 1-1.14 1.75l-6.81 1.42a1.47 1.47 0 0 1-1.69-1.09zm-5-17.43c-.66-1.78-1.35-3.53-2.07-5.23a1.47 1.47 0 0 1 .75-1.92l6.36-2.81a1.47 1.47 0 0 1 2 .76c.81 1.91 1.59 3.88 2.33 5.88a1.48 1.48 0 0 1-.9 1.9l-6.56 2.32a1.47 1.47 0 0 1-1.94-.9z"/><path class="cls-4" d="M168.5 484.63c-.24-32.71-.63-36-.7-68.78q-.11-50.54.15-101.09c.18-30.75.48-61.5 1.1-92.24q.39-19.59 1-39.17c.55-16.87.63-33.86 2.2-50.65.72-7.7 3-15.38 5.22-22.79 10.59-35.1 41-62 77.54-65.81l-6.67-5.1 10.15-4.21-9.7-3.71 9.94-6.93c-1.57 1.1-7.58.54-9.61.84a133.9 133.9 0 0 0-14.25 3.1 101.28 101.28 0 0 0-23.28 9.55 113.23 113.23 0 0 0-27 20.73 105 105 0 0 0-11.19 13.88 112.85 112.85 0 0 0-12.28 24.23c-14.53 39.66-11.44 81.81-11.6 123.19q-.14 35.2-.38 70.4-.28 45-.6 90c-.22 32.09-.48 72.5-.72 104.59"/><path class="cls-3" d="M247.16 25.08c5.57-1.84 3.71-10.41-1-10.41-44.06 1.85-85.18 41-98.56 81-10.77 32.23-10.94 60.95-10.11 241.16l-.3 147.79"/><path class="cls-1" d="M155.52 69.67L149.59 66a1.47 1.47 0 0 1-.48-2c1.08-1.71 2.27-3.47 3.54-5.26a1.48 1.48 0 0 1 2.07-.33l5.63 4.09a1.48 1.48 0 0 1 .33 2c-1.13 1.59-2.18 3.15-3.14 4.66a1.47 1.47 0 0 1-2.02.51zm10.78-14.8l-5.3-4.46a1.47 1.47 0 0 1-.18-2.08c1.34-1.58 2.72-3.14 4.12-4.67a1.47 1.47 0 0 1 2.09-.08l5.09 4.75a1.47 1.47 0 0 1 .08 2.07c-1.29 1.41-2.56 2.84-3.79 4.29a1.47 1.47 0 0 1-2.11.18zm12.6-13.41l-4.78-5.06a1.48 1.48 0 0 1 .07-2.09c1.54-1.43 3.1-2.82 4.67-4.16a1.47 1.47 0 0 1 2.08.18l4.46 5.34a1.47 1.47 0 0 1-.18 2.06c-1.43 1.22-2.85 2.49-4.26 3.79a1.47 1.47 0 0 1-2.06-.07zm14.1-11.7l-4-5.66a1.48 1.48 0 0 1 .35-2.07c1.75-1.22 3.51-2.39 5.27-3.49a1.47 1.47 0 0 1 2 .49l3.62 5.97a1.47 1.47 0 0 1-.48 2c-1.56 1-3.13 2-4.69 3.1a1.47 1.47 0 0 1-2.07-.34zm15.62-9.34l-3-6.27a1.48 1.48 0 0 1 .7-2c2-.91 4-1.75 5.93-2.5a1.47 1.47 0 0 1 1.9.89l2.37 6.54a1.47 1.47 0 0 1-.86 1.87c-1.68.64-3.38 1.36-5.07 2.14a1.47 1.47 0 0 1-1.94-.67zm16.94-6l-1.5-6.8a1.47 1.47 0 0 1 1.14-1.76c2.17-.43 4.34-.77 6.49-1a1.47 1.47 0 0 1 1.61 1.34l.61 6.94a1.47 1.47 0 0 1-1.31 1.59c-1.75.2-3.53.47-5.3.82a1.47 1.47 0 0 1-1.71-1.09zm-88.64 127.37l-7 .09a1.47 1.47 0 0 1-1.49-1.46c0-2 .07-4.14.19-6.34a1.48 1.48 0 0 1 1.57-1.39l6.94.46a1.48 1.48 0 0 1 1.37 1.56c-.11 2-.16 3.83-.17 5.61a1.47 1.47 0 0 1-1.41 1.47zm-1.35 19.31l-7 .09a1.47 1.47 0 0 1-1.49-1.46c0-2 .07-4.14.19-6.34a1.48 1.48 0 0 1 1.57-1.39l6.94.46a1.48 1.48 0 0 1 1.37 1.56c-.11 2-.16 3.83-.17 5.61a1.47 1.47 0 0 1-1.41 1.47zm-1.35 19.31l-7 .09a1.47 1.47 0 0 1-1.49-1.46c0-2 .07-4.14.19-6.34a1.48 1.48 0 0 1 1.57-1.39l6.94.46a1.48 1.48 0 0 1 1.37 1.56c-.11 2-.16 3.83-.17 5.61a1.47 1.47 0 0 1-1.41 1.47zm-.36 19.31l-7 .09a1.47 1.47 0 0 1-1.49-1.46c0-2 .07-4.14.19-6.34a1.48 1.48 0 0 1 1.57-1.39l6.94.46a1.48 1.48 0 0 1 1.37 1.56c-.11 2-.16 3.83-.17 5.61a1.47 1.47 0 0 1-1.41 1.47zm0 19.14l-7 .09a1.47 1.47 0 0 1-1.49-1.46c0-2 .07-4.14.19-6.34a1.48 1.48 0 0 1 1.57-1.39l6.94.46a1.48 1.48 0 0 1 1.37 1.56c-.11 2-.16 3.83-.17 5.61a1.47 1.47 0 0 1-1.41 1.47zm0 19.14l-7 .09a1.47 1.47 0 0 1-1.49-1.46c0-2 .07-4.14.19-6.34a1.48 1.48 0 0 1 1.57-1.39l6.94.46a1.48 1.48 0 0 1 1.37 1.56c-.11 2-.16 3.83-.17 5.61a1.47 1.47 0 0 1-1.41 1.47zm0 19.14l-7 .09a1.47 1.47 0 0 1-1.49-1.46c0-2 .07-4.14.19-6.34a1.48 1.48 0 0 1 1.57-1.39l6.94.46a1.48 1.48 0 0 1 1.37 1.56c-.11 2-.16 3.83-.17 5.61a1.47 1.47 0 0 1-1.41 1.48zm0 19.14l-7 .09a1.47 1.47 0 0 1-1.49-1.46c0-2 .07-4.14.19-6.34a1.48 1.48 0 0 1 1.57-1.39l6.94.46a1.48 1.48 0 0 1 1.37 1.56c-.11 2-.16 3.83-.17 5.61a1.47 1.47 0 0 1-1.41 1.48zm0 19.14l-7 .09a1.47 1.47 0 0 1-1.49-1.46c0-2 .07-4.14.19-6.34a1.48 1.48 0 0 1 1.57-1.39l6.94.46a1.48 1.48 0 0 1 1.37 1.56c-.11 2-.16 3.83-.17 5.61a1.47 1.47 0 0 1-1.41 1.48zm0 19.14l-7 .09a1.47 1.47 0 0 1-1.49-1.46c0-2 .07-4.14.19-6.34a1.48 1.48 0 0 1 1.57-1.39l6.94.46a1.48 1.48 0 0 1 1.37 1.56c-.11 2-.16 3.83-.17 5.61a1.47 1.47 0 0 1-1.41 1.49zm3.63-191.27l-6.93-.6a1.47 1.47 0 0 1-1.34-1.6c.2-2.06.44-4.13.71-6.19a1.47 1.47 0 0 1 1.67-1.26l6.89 1a1.47 1.47 0 0 1 1.25 1.65c-.25 1.89-.47 3.79-.65 5.68a1.47 1.47 0 0 1-1.59 1.34zm4.64-18.21l-6.81-1.42a1.48 1.48 0 0 1-1.14-1.75c.45-2 .93-4.09 1.45-6.08a1.47 1.47 0 0 1 1.81-1l6.71 1.83a1.47 1.47 0 0 1 1 1.79c-.47 1.82-.92 3.67-1.33 5.54a1.47 1.47 0 0 1-1.68 1.11zM147 87.42l-6.56-2.32a1.48 1.48 0 0 1-.9-1.9c.73-2 1.51-4 2.33-5.88a1.47 1.47 0 0 1 2-.76l6.36 2.81a1.47 1.47 0 0 1 .75 1.92c-.72 1.7-1.42 3.45-2.07 5.23a1.47 1.47 0 0 1-1.91.9z"/><path class="cls-5" d="M168.31 277a18.06 18.06 0 0 0 5.15-12.75v-40l-18.35-21.38v-52.22c-3.2-8.93-18.73-9.58-24.74-9.49-6-.09-21.53.57-24.74 9.49v52.16l-18.34 21.38v40A18.16 18.16 0 0 0 91.54 276"/><path class="cls-5" d="M120.8 214.45h-4.13a14.21 14.21 0 0 0-11.58 6.18l-2.55 3.61a16.13 16.13 0 0 0-2.7 6.57l-12.13 70.8a30.27 30.27 0 0 0-.43 5.11 28.86 28.86 0 0 0 12 23.75l3.56 2.47a25.14 25.14 0 0 0 14.36 4.55H142a25.14 25.14 0 0 0 14.36-4.55l3.56-2.47a28.86 28.86 0 0 0 12-23.75 30.27 30.27 0 0 0-.43-5.11l-12.13-70.8a16.13 16.13 0 0 0-2.7-6.57l-2.55-3.61a14.21 14.21 0 0 0-11.58-6.18H142"/><path class="cls-5" d="M120.8 231h-9l-5.06 40.69a6.41 6.41 0 0 0 6.06 7.41h33.41a6.4 6.4 0 0 0 6.07-7.33L147.75 231h-7.8"/><rect class="cls-5" x="120.8" y="169.46" width="19.15" height="78.24" rx="9.57" ry="9.57"/><text class="cls-6" transform="matrix(1.01 0 0 1 102.39 317.23)">NEL</text></g></g></svg>