<svg xmlns="http://www.w3.org/2000/svg" viewBox="0 0 241.82 360.97"><defs><style>.cls-1,.cls-2,.cls-5{fill:none}.cls-1,.cls-2,.cls-3,.cls-4,.cls-5{stroke:#000}.cls-1,.cls-2,.cls-3,.cls-4{stroke-miterlimit:10}.cls-1,.cls-2{stroke-width:3.71px}.cls-2,.cls-5{stroke-linecap:round}.cls-3{fill:#fcdd0f;stroke-width:4.01px}.cls-4{stroke-width:1.5px}.cls-5{stroke-linejoin:round;stroke-width:3.81px}</style></defs><title>zipper</title><g id="Layer_2" data-name="Layer 2"><g id="artwork"><path class="cls-1" d="M81.39 59.68c-1.12-1.46-2.34-3-3.66-4.51a1.39 1.39 0 0 1 .27-2.06l6-4.34a1.72 1.72 0 0 1 2.28.24c1.48 1.74 2.87 3.44 4.13 5.1a1.39 1.39 0 0 1-.43 2.05l-6.31 3.9a1.71 1.71 0 0 1-2.28-.38zm10.4 14c-1-1.53-2.1-3.12-3.29-4.74a1.4 1.4 0 0 1 .42-2L95.21 63a1.71 1.71 0 0 1 2.25.39c1.34 1.83 2.59 3.62 3.72 5.36a1.4 1.4 0 0 1-.59 2L94 74.21a1.7 1.7 0 0 1-2.21-.53zm-23-28c-1.42-1.39-2.87-2.77-4.35-4.12a1.38 1.38 0 0 1 0-2.07l5.33-5a1.72 1.72 0 0 1 2.29 0c1.61 1.47 3.2 3 4.74 4.48a1.39 1.39 0 0 1-.1 2.09l-5.6 4.69a1.72 1.72 0 0 1-2.26-.09zM54.4 33.07c-1.6-1.24-3.22-2.44-4.84-3.59a1.39 1.39 0 0 1-.29-2.05l4.62-5.53a1.72 1.72 0 0 1 2.27-.28c1.78 1.27 3.56 2.59 5.31 3.94a1.39 1.39 0 0 1 .17 2.09l-5 5.27a1.72 1.72 0 0 1-2.24.15zm-16-10.77c-1.76-1-3.52-2-5.28-2.89a1.4 1.4 0 0 1-.62-2l3.66-6.1a1.69 1.69 0 0 1 2.2-.58c2 1 4 2.11 5.94 3.25a1.4 1.4 0 0 1 .48 2l-4.16 5.83a1.71 1.71 0 0 1-2.2.49zM21 14c-1.89-.7-3.78-1.34-5.65-1.91a1.45 1.45 0 0 1-1-1.83l2.27-6.64a1.65 1.65 0 0 1 2-1c2.19.66 4.4 1.41 6.61 2.23a1.44 1.44 0 0 1 .87 1.95l-3 6.4a1.67 1.67 0 0 1-2.1.8z"/><path class="cls-2" d="M1.86 10.73c45.11 8.79 81.4 43.43 94.39 79 11.75 32.19 13.75 39.1 13.26 206.39l.48 58.67"/><path class="cls-2" d="M107.45 146.12c0-1.78-.07-3.66-.18-5.61a1.53 1.53 0 0 1 1.5-1.56l7.6-.46a1.57 1.57 0 0 1 1.72 1.39c.13 2.2.2 4.32.21 6.34a1.55 1.55 0 0 1-1.64 1.46l-7.66-.08a1.55 1.55 0 0 1-1.55-1.48zm1.48 19.31c0-1.78-.07-3.66-.18-5.61a1.53 1.53 0 0 1 1.5-1.56l7.6-.46a1.57 1.57 0 0 1 1.72 1.39c.13 2.2.2 4.32.21 6.34a1.55 1.55 0 0 1-1.64 1.46l-7.62-.09a1.55 1.55 0 0 1-1.59-1.47zm1.48 19.31c0-1.78-.07-3.66-.18-5.61a1.53 1.53 0 0 1 1.5-1.56l7.6-.46a1.57 1.57 0 0 1 1.67 1.39c.13 2.2.2 4.32.21 6.34a1.55 1.55 0 0 1-1.64 1.46l-7.62-.09a1.55 1.55 0 0 1-1.54-1.47zm.39 19.26c0-1.78-.07-3.66-.18-5.61a1.53 1.53 0 0 1 1.5-1.56l7.6-.46a1.57 1.57 0 0 1 1.72 1.39c.13 2.2.2 4.32.21 6.34a1.55 1.55 0 0 1-1.64 1.46l-7.62-.09a1.55 1.55 0 0 1-1.59-1.47zm0 19.14c0-1.78-.07-3.66-.18-5.61a1.53 1.53 0 0 1 1.5-1.56l7.6-.46a1.57 1.57 0 0 1 1.72 1.39c.13 2.2.2 4.32.21 6.34a1.55 1.55 0 0 1-1.64 1.46l-7.62-.09a1.55 1.55 0 0 1-1.59-1.42zm0 19.14c0-1.78-.07-3.66-.18-5.61a1.53 1.53 0 0 1 1.5-1.56l7.6-.46a1.57 1.57 0 0 1 1.72 1.39c.13 2.2.2 4.32.21 6.34a1.55 1.55 0 0 1-1.65 1.52l-7.62-.09a1.55 1.55 0 0 1-1.58-1.47zm0 19.14c0-1.78-.07-3.66-.18-5.61a1.53 1.53 0 0 1 1.5-1.56l7.6-.46a1.57 1.57 0 0 1 1.72 1.39c.13 2.2.2 4.32.21 6.34A1.55 1.55 0 0 1 120 263l-7.62-.09a1.55 1.55 0 0 1-1.58-1.43zm0 19.14c0-1.78-.07-3.66-.18-5.61a1.53 1.53 0 0 1 1.5-1.56l7.6-.46a1.57 1.57 0 0 1 1.72 1.39c.13 2.2.2 4.32.21 6.34a1.55 1.55 0 0 1-1.64 1.46l-7.62-.09a1.55 1.55 0 0 1-1.59-1.41zm-4.13-152.83c-.2-1.89-.44-3.79-.71-5.68a1.5 1.5 0 0 1 1.37-1.65l7.54-1a1.6 1.6 0 0 1 1.83 1.26c.3 2.06.56 4.13.78 6.19a1.52 1.52 0 0 1-1.47 1.6l-7.59.6a1.57 1.57 0 0 1-1.75-1.26zm-3.08-18c-.45-1.87-.93-3.72-1.45-5.54a1.46 1.46 0 0 1 1.13-1.79l7.35-1.83a1.63 1.63 0 0 1 2 1c.57 2 1.1 4 1.59 6.08a1.48 1.48 0 0 1-1.25 1.75l-7.46 1.42a1.62 1.62 0 0 1-1.91-1.05zm-5.51-17.38c-.72-1.78-1.48-3.53-2.27-5.23a1.42 1.42 0 0 1 .83-1.92l7-2.81a1.67 1.67 0 0 1 2.14.76c.89 1.91 1.75 3.88 2.55 5.88a1.45 1.45 0 0 1-1 1.9l-7.18 2.32a1.66 1.66 0 0 1-2.07-.9zM240 11.65c-48.24 1.85-90 41-104.64 81-11.79 32.23-12.59 33-12.16 203.46l-.22 63"/><path class="cls-1" d="M144 66.65L137.5 63a1.4 1.4 0 0 1-.53-2c1.18-1.71 2.48-3.47 3.88-5.26a1.72 1.72 0 0 1 2.26-.33l6.16 4.09a1.39 1.39 0 0 1 .36 2 98.165 98.165 0 0 0-3.43 4.66 1.71 1.71 0 0 1-2.2.49zm11.8-14.81l-5.8-4.46a1.39 1.39 0 0 1-.2-2.08c1.47-1.58 3-3.14 4.52-4.67a1.72 1.72 0 0 1 2.29-.08l5.57 4.75a1.38 1.38 0 0 1 .08 2.07c-1.41 1.41-2.8 2.84-4.15 4.29a1.72 1.72 0 0 1-2.31.18zm13.8-13.41l-5.23-5.06a1.39 1.39 0 0 1 .07-2.09c1.68-1.43 3.4-2.82 5.11-4.16a1.72 1.72 0 0 1 2.28.18l4.89 5.34a1.38 1.38 0 0 1-.19 2.06c-1.56 1.22-3.12 2.49-4.66 3.79a1.72 1.72 0 0 1-2.27-.06zm15.47-11.69l-4.44-5.66A1.4 1.4 0 0 1 181 19c1.91-1.22 3.84-2.39 5.77-3.49A1.7 1.7 0 0 1 189 16l4 6a1.4 1.4 0 0 1-.53 2c-1.71 1-3.43 2-5.14 3.1a1.71 1.71 0 0 1-2.26-.37zm17.1-9.34l-3.3-6.27a1.43 1.43 0 0 1 .77-2c2.16-.91 4.33-1.75 6.49-2.5a1.66 1.66 0 0 1 2.08.89l2.59 6.54a1.43 1.43 0 0 1-.95 1.87c-1.84.64-3.7 1.36-5.55 2.14a1.68 1.68 0 0 1-2.13-.68zm18.55-6l-1.65-6.8a1.48 1.48 0 0 1 1.25-1.76c2.37-.43 4.75-.77 7.11-1a1.58 1.58 0 0 1 1.77 1.34l.66 6.94a1.51 1.51 0 0 1-1.44 1.59c-1.92.2-3.86.47-5.8.82a1.62 1.62 0 0 1-1.89-1.1zm-97.09 127.36l-7.62.09a1.55 1.55 0 0 1-1.64-1.46c0-2 .07-4.14.21-6.34a1.57 1.57 0 0 1 1.72-1.39l7.6.46a1.53 1.53 0 0 1 1.5 1.56c-.12 2-.18 3.83-.18 5.61a1.55 1.55 0 0 1-1.59 1.47zm-1.48 19.31l-7.62.09a1.55 1.55 0 0 1-1.64-1.46c0-2 .07-4.14.21-6.34a1.57 1.57 0 0 1 1.72-1.39l7.6.46a1.53 1.53 0 0 1 1.5 1.56c-.12 2-.18 3.83-.18 5.61a1.55 1.55 0 0 1-1.59 1.47zm-1.48 19.31l-7.62.09a1.55 1.55 0 0 1-1.64-1.46c0-2 .07-4.14.21-6.34a1.57 1.57 0 0 1 1.72-1.39l7.6.46a1.53 1.53 0 0 1 1.5 1.56c-.12 2-.18 3.83-.18 5.61a1.55 1.55 0 0 1-1.58 1.47zm-.39 19.31l-7.62.09a1.55 1.55 0 0 1-1.64-1.46c0-2 .07-4.14.21-6.34a1.57 1.57 0 0 1 1.72-1.39l7.6.46a1.53 1.53 0 0 1 1.5 1.56c-.12 2-.18 3.83-.18 5.61a1.55 1.55 0 0 1-1.59 1.47zm0 19.14l-7.62.09a1.55 1.55 0 0 1-1.64-1.46c0-2 .07-4.14.21-6.34a1.57 1.57 0 0 1 1.72-1.39l7.6.46a1.53 1.53 0 0 1 1.5 1.56c-.12 2-.18 3.83-.18 5.61a1.55 1.55 0 0 1-1.59 1.47zm0 19.14l-7.62.09a1.55 1.55 0 0 1-1.66-1.46c0-2 .07-4.14.21-6.34a1.57 1.57 0 0 1 1.72-1.39l7.6.46a1.53 1.53 0 0 1 1.5 1.56c-.12 2-.18 3.83-.18 5.61a1.55 1.55 0 0 1-1.57 1.5zm0 19.14l-7.62.09a1.55 1.55 0 0 1-1.64-1.46c0-2 .07-4.14.21-6.34A1.57 1.57 0 0 1 113 245l7.6.46a1.53 1.53 0 0 1 1.5 1.56c-.12 2-.18 3.83-.18 5.61a1.55 1.55 0 0 1-1.64 1.49zm0 19.14l-7.62.09a1.55 1.55 0 0 1-1.64-1.46c0-2 .07-4.14.21-6.34a1.57 1.57 0 0 1 1.72-1.39l7.6.46a1.53 1.53 0 0 1 1.5 1.56c-.12 2-.18 3.83-.18 5.61a1.55 1.55 0 0 1-1.59 1.48zm0 19.14l-7.62.09A1.55 1.55 0 0 1 111 291c0-2 .07-4.14.21-6.34a1.57 1.57 0 0 1 1.79-1.36l7.6.46a1.53 1.53 0 0 1 1.5 1.56c-.12 2-.18 3.83-.18 5.61a1.55 1.55 0 0 1-1.64 1.48zm4-172.12l-7.59-.6a1.52 1.52 0 0 1-1.47-1.6c.22-2.06.48-4.13.78-6.19a1.6 1.6 0 0 1 1.83-1.26l7.54 1a1.5 1.5 0 0 1 1.37 1.65c-.28 1.89-.52 3.79-.71 5.68a1.57 1.57 0 0 1-1.77 1.33zm5.09-18.21l-7.46-1.42a1.48 1.48 0 0 1-1.25-1.75c.49-2 1-4.09 1.59-6.08a1.63 1.63 0 0 1 2-1l7.35 1.83a1.46 1.46 0 0 1 1.13 1.79c-.52 1.82-1 3.67-1.45 5.54a1.62 1.62 0 0 1-1.93 1.1zm5.36-17.67l-7.18-2.32a1.45 1.45 0 0 1-1-1.9c.8-2 1.66-4 2.55-5.88a1.67 1.67 0 0 1 2.14-.76l7 2.81a1.42 1.42 0 0 1 .83 1.92c-.79 1.7-1.55 3.45-2.27 5.23a1.66 1.66 0 0 1-2.09.91z"/><path class="cls-3" d="M147.43 247.53a14.38 14.38 0 0 0 4.21-10.23v-27.42a12.67 12.67 0 0 0-3.14-8.33l-9.34-10.7a10.1 10.1 0 0 1-2.5-6.65v-38.1c-2.61-7.17-15.29-7.69-20.19-7.62s-17.58.45-20.19 7.62v38.1a10.1 10.1 0 0 1-2.5 6.65l-9.34 10.7a12.67 12.67 0 0 0-3.14 8.33v27.41a14.44 14.44 0 0 0 3.47 9.45"/><path class="cls-3" d="M108.65 197.33h-3.37a11.66 11.66 0 0 0-9.46 5l-2.08 2.9a12.84 12.84 0 0 0-2.2 5.28l-9.9 56.84a23.91 23.91 0 0 0-.35 4.1 23.05 23.05 0 0 0 9.83 19.07l2.91 2a20.76 20.76 0 0 0 11.72 3.65H126a20.76 20.76 0 0 0 11.72-3.65l2.91-2a23.05 23.05 0 0 0 9.83-19.07 23.91 23.91 0 0 0-.35-4.1l-9.9-56.84a12.84 12.84 0 0 0-2.2-5.28l-2.08-2.9a11.66 11.66 0 0 0-9.46-5H126"/><path class="cls-3" d="M108.65 210.64h-1a7.08 7.08 0 0 0-7.06 6.14l-3.39 17.53a5.17 5.17 0 0 0 4.94 6h27.27a5.17 5.17 0 0 0 5-5.88l-3-17.51a7.08 7.08 0 0 0-7.07-6.22"/><rect class="cls-3" x="108.65" y="161.21" width="15.63" height="62.82" rx="7.47" ry="7.47"/><path class="cls-4" d="M116.76 286.37l-16-9.25v-18.5l16-9.25 16 9.25v18.5zM102 276.42l14.76 8.58 14.81-8.55v-17.1l-14.81-8.55-14.76 8.52zm30.22.35z"/><path class="cls-4" d="M110.45 265.09l-9.26-5.62a.61.61 0 0 1 .63-1l8.82 5.36 21.09-5.35a.61.61 0 1 1 .3 1.18z"/><path class="cls-4" d="M116.76 286.27a.61.61 0 0 1-.58-.44L110 264.61a.61.61 0 0 1 1.16-.34l6.22 21.23a.61.61 0 0 1-.41.75z"/><path class="cls-5" d="M109.98 296.12h12.96v9.14h-12.96zm0 9.14h12.96v9.14h-12.96zm0 9.14h12.96v9.14h-12.96zm0 9.14h12.96v9.14h-12.96zm0 9.14h12.96v9.14h-12.96z"/></g></g></svg>