<svg xmlns="http://www.w3.org/2000/svg" viewBox="0 0 60.34 69.68"><title>box</title><g id="Layer_2" data-name="Layer 2"><g id="artwork"><path d="M30.17,69.68,0,52.26V17.42L30.17,0,60.34,17.42V52.26ZM2.28,50.94,30.17,67l27.89-16.1V18.74L30.17,2.64,2.28,18.74Zm56.92.66h0Z"/><path d="M18.28,29.61.85,19a1.14,1.14,0,0,1,1.19-2L18.65,27.16,58.36,17.08a1.14,1.14,0,1,1,.56,2.21Z"/><path d="M30.17,69.5a1.14,1.14,0,0,1-1.1-.82l-11.71-40a1.14,1.14,0,0,1,2.19-.64L31.27,68a1.14,1.14,0,0,1-1.1,1.46Z"/></g></g></svg>