<svg xmlns="http://www.w3.org/2000/svg" viewBox="0 0 120.26 126.34"><defs><style>.cls-1,.cls-2{fill:none;stroke:#000;stroke-linecap:round;stroke-linejoin:round;}.cls-1{stroke-width:3.13px;}.cls-2{stroke-width:2.79px;}</style></defs><title>building</title><g id="Layer_2" data-name="Layer 2"><g id="artwork"><polygon class="cls-1" points="31.49 109.39 12.86 109.39 12.86 105.92 14.94 104.49 14.94 53.95 12.86 52.63 12.86 46.67 31.49 46.67 31.49 52.46 29.4 53.76 29.4 104.16 31.49 105.86 31.49 109.39"/><polygon class="cls-1" points="56.79 109.39 38.16 109.39 38.16 105.92 40.25 104.49 40.25 53.95 38.16 52.63 38.16 46.67 56.79 46.67 56.79 52.46 54.71 53.76 54.71 104.16 56.79 105.86 56.79 109.39"/><polygon class="cls-1" points="82.1 109.39 63.47 109.39 63.47 105.92 65.56 104.49 65.56 53.95 63.47 52.63 63.47 46.67 82.1 46.67 82.1 52.46 80.02 53.76 80.02 104.16 82.1 105.86 82.1 109.39"/><polygon class="cls-1" points="107.41 109.39 88.78 109.39 88.78 105.92 90.86 104.49 90.86 53.95 88.78 52.63 88.78 46.67 107.41 46.67 107.41 52.46 105.32 53.76 105.32 104.16 107.41 105.86 107.41 109.39"/><rect class="cls-2" x="55.38" y="63.24" width="9.51" height="113.91" transform="translate(180.32 60.06) rotate(90)"/><rect class="cls-1" x="56.32" y="-18.09" width="7.62" height="109.29" transform="translate(96.69 -23.58) rotate(90)"/><path class="cls-1" d="M60.13,1.56,2.92,28.18a2.34,2.34,0,0,0,1,4.46H116.36a2.34,2.34,0,0,0,1-4.46Z"/><circle class="cls-1" cx="60.13" cy="18.15" r="6.92"/></g></g></svg>