<svg xmlns="http://www.w3.org/2000/svg" viewBox="0 0 252.94 60.9"><title>logo</title><g id="Layer_2" data-name="Layer 2"><g id="artwork"><path d="M82.38,20.66c4.24,0,6.64,2.33,6.64,5.5a4.56,4.56,0,0,1-3.17,4.38,4.88,4.88,0,0,1,3.84,4.84c0,3.31-2.65,5.7-6.74,5.7H74.53V20.66Zm-.65,8.43c1.94,0,3.11-1,3.11-2.56S83.76,24,81.7,24h-3v5.1Zm.43,8.67c2.06,0,3.29-1,3.29-2.65s-1.11-2.73-3.23-2.73H78.71v5.38Z"/><path d="M92.37,41.07V20.23h4.09V41.07Z"/><path d="M103.72,32.93l3.72-.52c.86-.12,1.14-.52,1.14-1,0-1-.83-1.84-2.55-1.84a2.63,2.63,0,0,0-2.89,2.3l-3.63-.72c.25-2.22,2.43-4.66,6.49-4.66,4.8,0,6.58,2.53,6.58,5.38v7a14.86,14.86,0,0,0,.18,2.25H109a9,9,0,0,1-.15-1.7,5.16,5.16,0,0,1-4.46,2.1c-3.23,0-5.2-2-5.2-4.26C99.2,34.68,101.2,33.27,103.72,32.93Zm4.86,2.42v-.63l-3.41.49c-1,.14-1.88.69-1.88,1.78,0,.83.65,1.64,2,1.64C107,38.63,108.58,37.85,108.58,35.34Z"/><path d="M119,34a3.76,3.76,0,0,0,3.88,4,3.43,3.43,0,0,0,3.48-2.39l3.6,1.12c-.68,2.36-3,4.78-7.07,4.78-4.46,0-8-3.17-8-7.51a7.5,7.5,0,0,1,7.84-7.51c4.12,0,6.46,2.39,7.11,4.78l-3.66,1.15A3.26,3.26,0,0,0,122.82,30,3.71,3.71,0,0,0,119,34Z"/><path d="M140.94,32.87l6.18,8.2h-5l-4-5.41-1.69,1.67v3.74h-4.09V20.23h4.09V32.18l5.23-5.27H147Z"/><path d="M148.91,41.07V20.23h4v8.23a5.53,5.53,0,0,1,4.58-1.93c4.43,0,7,3.2,7,7.4s-2.83,7.48-7.14,7.48a5.24,5.24,0,0,1-4.49-2.07v1.73ZM156.66,30a3.69,3.69,0,0,0-3.78,4,3.73,3.73,0,0,0,3.78,4,3.68,3.68,0,0,0,3.75-4A3.65,3.65,0,0,0,156.66,30Z"/><path d="M181.85,34c0,4.35-3.41,7.51-7.94,7.51S166,38.34,166,34s3.41-7.51,7.94-7.51S181.85,29.61,181.85,34Zm-4.09,0a3.85,3.85,0,1,0-7.69,0,3.85,3.85,0,1,0,7.69,0Z"/><path d="M186.84,34l-5.38-7.05h4.86c.52.78,2.49,3.43,3,4.2l3-4.2H197l-5.29,6.94,5.48,7.23h-4.8l-3.17-4.35c-.55.78-2.58,3.57-3.11,4.35h-4.61Z"/><path d="M207.54,41.07V20.66h4.31V41.07Z"/><path d="M219.38,41.07h-4.09V26.91h4v1.76a5.14,5.14,0,0,1,4.37-2.13c3.75,0,5.48,2.5,5.48,5.61v8.92H225V32.81a2.56,2.56,0,0,0-2.8-2.82,2.74,2.74,0,0,0-2.83,2.94Z"/><path d="M235,34a3.76,3.76,0,0,0,3.88,4,3.43,3.43,0,0,0,3.48-2.39l3.6,1.12c-.68,2.36-3,4.78-7.07,4.78-4.46,0-8-3.17-8-7.51a7.5,7.5,0,0,1,7.84-7.51c4.12,0,6.46,2.39,7.11,4.78l-3.66,1.15A3.26,3.26,0,0,0,238.82,30,3.71,3.71,0,0,0,235,34Z"/><path d="M250.11,36a2.63,2.63,0,1,1-2.8,2.62A2.73,2.73,0,0,1,250.11,36Z"/><path d="M26.37,60.9,0,45.68V15.23L26.37,0,52.74,15.23V45.68ZM2,44.52,26.37,58.6,50.75,44.52V16.38L26.37,2.31,2,16.38Zm49.75.58h0Z"/><path d="M16,25.88.74,16.63a1,1,0,1,1,1-1.71L16.3,23.74,51,14.93a1,1,0,0,1,.49,1.94Z"/><path d="M26.37,60.75a1,1,0,0,1-1-.72L15.18,25.09a1,1,0,0,1,1.92-.56L27.33,59.47a1,1,0,0,1-1,1.28Z"/></g></g></svg>