<svg xmlns="http://www.w3.org/2000/svg" viewBox="0 0 38.89 38.28"><title>tick</title><g id="Layer_2" data-name="Layer 2"><g id="artwork"><path d="M36.13,3.34V38.28H0V2.15H34.9Q36.73.88,38.19,0l.7,1.27Q37.71,2.12,36.13,3.34ZM16.86,29.22l-1.07.71a19.14,19.14,0,0,0-2.39,1.81,21.12,21.12,0,0,0-1-2.83l-.54-1.39A35,35,0,0,0,8.8,21.2a4,4,0,0,0-2.72-1.94,5.58,5.58,0,0,1,3.46-1.81q2,0,4.42,5.44l.88,2A72.71,72.71,0,0,1,31.76,4.54H2.39V35.86h31.3V5.4A71.6,71.6,0,0,0,23.51,17,52.87,52.87,0,0,0,16.86,29.22Z"/></g></g></svg>